<svg width="128" height="97" viewBox="0 0 128 97" fill="none" xmlns="http://www.w3.org/2000/svg">
<path d="M119.035 0C119.466 0.000711516 119.89 0.10858 120.267 0.313724C120.645 0.518869 120.965 0.814731 121.197 1.17421L121.403 1.55711L127.795 16.49C127.948 16.8462 128.017 17.2321 127.997 17.6185C127.977 18.005 127.868 18.3819 127.68 18.7207C127.492 19.0596 127.228 19.3515 126.909 19.5744C126.59 19.7974 126.224 19.9455 125.839 20.0075L125.428 20.0382H112.916V94.4474C112.916 95.0448 112.705 95.6234 112.32 96.0824C111.934 96.5414 111.398 96.8516 110.806 96.9592L110.343 97H17.6655C17.0632 97.0002 16.4799 96.7908 16.0172 96.4084C15.5545 96.0259 15.2417 95.4945 15.1333 94.9068L15.0921 94.4474L15.0767 20.0382H2.57526C2.18504 20.0384 1.79988 19.9507 1.44889 19.7816C1.0979 19.6124 0.790286 19.3663 0.549314 19.0619C0.308341 18.7574 0.140322 18.4026 0.0579665 18.0243C-0.0243894 17.6459 -0.0189253 17.2539 0.0739454 16.878L0.202614 16.49L6.6 1.55711C6.76811 1.16292 7.03345 0.816994 7.37161 0.551145C7.70977 0.285297 8.10989 0.10806 8.53517 0.0357368L8.96749 0H119.035ZM107.769 20.0382H20.2388V91.8896H34.2431V40.2907C34.2429 39.6933 34.4539 39.1147 34.8395 38.6557C35.2251 38.1968 35.7608 37.8865 36.3532 37.7789L36.8164 37.7381H91.1916C91.7931 37.7391 92.3751 37.949 92.8368 38.3314C93.2984 38.7138 93.6104 39.2444 93.7187 39.8313L93.765 40.2907L93.7599 91.8896H107.78V20.0382H107.769ZM61.423 59.2517H39.3898L39.3847 91.8896H61.4281L61.423 59.2517ZM88.6028 59.2517H66.5748V91.8896H88.608L88.6028 59.2517ZM61.4281 42.8383H39.3847V54.1464H61.4178V42.8383H61.4281ZM88.6028 42.8383H66.5748V54.1464H88.6028V42.8383ZM117.327 5.10526H10.6659L6.46104 14.9329H121.532L117.327 5.10526Z" fill="#963A0B"/>
</svg>
