<svg width="512" height="412" viewBox="0 0 512 412" fill="none" xmlns="http://www.w3.org/2000/svg">
<path d="M286 286H420C429.389 286 437 278.389 437 269V260.5L323.451 105.54C316.59 96.1758 302.57 96.291 295.863 105.766L231.635 196.507C226.916 203.174 227.606 212.255 233.277 218.133L265.617 251.648C269.327 255.494 265.684 261.796 260.5 260.5V260.5L286 286Z" fill="#535353"/>
<path d="M75 265V269C75 278.389 82.6112 286 92 286H286L260.5 260.5L182.021 182.021C175.382 175.382 164.618 175.382 157.979 182.021L75 265Z" fill="#535353"/>
<path d="M192 98C192 114.569 178.569 128 162 128C145.431 128 132 114.569 132 98C132 81.4315 145.431 68 162 68C178.569 68 192 81.4315 192 98Z" fill="#535353"/>
<path d="M75 265V269C75 278.389 82.6112 286 92 286H286M75 265V47C75 37.6112 82.6112 30 92 30H420C429.389 30 437 37.6112 437 47V260.5M75 265L157.979 182.021C164.618 175.382 175.382 175.382 182.021 182.021L260.5 260.5M286 286H420C429.389 286 437 278.389 437 269V260.5M286 286L260.5 260.5M437 260.5L323.451 105.54C316.59 96.1758 302.57 96.291 295.863 105.766L231.635 196.507C226.916 203.174 227.606 212.255 233.277 218.133L265.617 251.648C269.327 255.494 265.684 261.796 260.5 260.5V260.5M192 98C192 114.569 178.569 128 162 128C145.431 128 132 114.569 132 98C132 81.4315 145.431 68 162 68C178.569 68 192 81.4315 192 98Z" stroke="#535353" stroke-width="8"/>
<path d="M149 366.953V316H152.401L173.633 358.883H172.321V316H176.208V366.953H172.807L151.575 323.797H152.887V366.953H149Z" fill="#535353"/>
<path d="M196.435 367.774C193.974 367.774 191.739 366.953 189.73 365.312C187.722 363.625 186.119 361.345 184.921 358.473C183.754 355.554 183.171 352.249 183.171 348.555C183.171 344.908 183.754 341.648 184.921 338.775C186.087 335.903 187.658 333.646 189.633 332.004C191.642 330.317 193.909 329.474 196.435 329.474C198.962 329.474 201.213 330.294 203.189 331.936C205.197 333.577 206.768 335.834 207.901 338.707C209.067 341.579 209.65 344.862 209.65 348.555C209.65 352.294 209.051 355.623 207.853 358.541C206.654 361.413 205.051 363.67 203.043 365.312C201.067 366.953 198.865 367.774 196.435 367.774ZM196.435 362.645C198.184 362.645 199.755 362.029 201.148 360.798C202.573 359.567 203.691 357.88 204.5 355.737C205.343 353.594 205.764 351.2 205.764 348.555C205.764 345.911 205.343 343.54 204.5 341.442C203.691 339.345 202.573 337.681 201.148 336.45C199.755 335.219 198.184 334.603 196.435 334.603C194.686 334.603 193.099 335.219 191.674 336.45C190.281 337.681 189.164 339.345 188.322 341.442C187.479 343.54 187.058 345.911 187.058 348.555C187.058 351.2 187.479 353.594 188.322 355.737C189.164 357.88 190.281 359.567 191.674 360.798C193.099 362.029 194.686 362.645 196.435 362.645Z" fill="#535353"/>
<path d="M224.333 366.953V330.294H227.977V366.953H224.333ZM224.333 323.523V316H227.977V323.523H224.333Z" fill="#535353"/>
<path d="M235.435 366.953V330.294H239.079V337.27L238.496 336.245C239.209 334.102 240.261 332.437 241.654 331.252C243.079 330.066 244.634 329.474 246.318 329.474C248.327 329.474 250.14 330.272 251.76 331.867C253.379 333.463 254.529 335.538 255.21 338.091L254.189 338.16C254.837 335.333 255.955 333.19 257.542 331.731C259.161 330.226 260.943 329.474 262.886 329.474C264.635 329.474 266.238 330.066 267.696 331.252C269.186 332.437 270.368 334.079 271.243 336.176C272.15 338.228 272.603 340.553 272.603 343.152V366.953H268.959V345.136C268.959 342.902 268.668 341.009 268.085 339.459C267.534 337.909 266.773 336.723 265.801 335.903C264.829 335.036 263.712 334.603 262.449 334.603C261.218 334.603 260.1 335.036 259.096 335.903C258.092 336.723 257.299 337.932 256.716 339.527C256.133 341.078 255.841 342.947 255.841 345.136V366.953H252.197V345.136C252.197 342.902 251.906 341.009 251.323 339.459C250.772 337.909 250.011 336.723 249.039 335.903C248.067 335.036 246.95 334.603 245.687 334.603C244.424 334.603 243.29 335.036 242.286 335.903C241.314 336.723 240.537 337.932 239.954 339.527C239.371 341.078 239.079 342.947 239.079 345.136V366.953H235.435Z" fill="#535353"/>
<path d="M287.091 367.774C285.44 367.774 283.966 367.341 282.67 366.475C281.375 365.563 280.354 364.332 279.609 362.781C278.864 361.231 278.492 359.453 278.492 357.447C278.492 355.532 278.783 353.799 279.366 352.249C279.949 350.653 280.856 349.308 282.087 348.213C283.318 347.119 284.889 346.344 286.8 345.888L297.003 343.494V348.145L287.674 350.334C285.796 350.79 284.435 351.633 283.593 352.864C282.784 354.095 282.379 355.554 282.379 357.241C282.379 358.883 282.832 360.274 283.739 361.413C284.678 362.553 285.877 363.123 287.334 363.123C289.116 363.123 290.671 362.599 291.999 361.55C293.327 360.456 294.363 358.997 295.108 357.173C295.853 355.349 296.225 353.32 296.225 351.086V341.784C296.225 339.596 295.659 337.818 294.525 336.45C293.391 335.082 291.918 334.398 290.104 334.398C288.517 334.398 287.124 334.968 285.925 336.108C284.727 337.202 283.836 338.638 283.253 340.417L279.949 337.886C280.435 336.336 281.196 334.922 282.233 333.646C283.302 332.369 284.516 331.366 285.877 330.636C287.237 329.861 288.646 329.474 290.104 329.474C292.015 329.474 293.699 329.998 295.157 331.047C296.647 332.095 297.796 333.554 298.606 335.424C299.448 337.248 299.869 339.368 299.869 341.784V366.953H296.225V359.635L296.76 360.388C296.306 361.755 295.594 363.009 294.622 364.149C293.683 365.244 292.565 366.133 291.27 366.817C290.007 367.455 288.614 367.774 287.091 367.774Z" fill="#535353"/>
<path d="M319.705 382C317.924 382 316.272 381.612 314.749 380.837C313.259 380.062 311.964 378.991 310.863 377.623C309.794 376.301 308.968 374.75 308.385 372.972L311.737 370.441C312.255 372.174 313.178 373.679 314.506 374.955C315.834 376.232 317.535 376.87 319.608 376.87C321.195 376.87 322.653 376.437 323.981 375.571C325.309 374.705 326.377 373.428 327.187 371.741C327.997 370.054 328.402 367.979 328.402 365.517V357.378L328.985 358.131C328.078 360.775 326.734 362.827 324.952 364.286C323.171 365.699 321.227 366.406 319.122 366.406C316.693 366.406 314.506 365.585 312.563 363.944C310.62 362.303 309.081 360.091 307.947 357.31C306.846 354.483 306.296 351.36 306.296 347.94C306.296 344.475 306.846 341.351 307.947 338.57C309.081 335.789 310.603 333.577 312.514 331.936C314.458 330.294 316.66 329.474 319.122 329.474C321.227 329.474 323.138 330.158 324.855 331.525C326.604 332.893 327.981 334.74 328.985 337.065L328.402 338.502V330.294H332.046V365.517C332.046 368.663 331.511 371.467 330.442 373.93C329.406 376.437 327.948 378.398 326.07 379.811C324.224 381.27 322.102 382 319.705 382ZM319.316 361.277C321.001 361.277 322.523 360.684 323.883 359.498C325.244 358.267 326.329 356.649 327.139 354.642C327.981 352.591 328.402 350.356 328.402 347.94C328.402 345.523 327.981 343.312 327.139 341.306C326.329 339.254 325.244 337.635 323.883 336.45C322.523 335.219 321.001 334.603 319.316 334.603C317.6 334.603 316.045 335.219 314.652 336.45C313.259 337.635 312.158 339.231 311.348 341.237C310.571 343.244 310.182 345.478 310.182 347.94C310.182 350.356 310.571 352.591 311.348 354.642C312.158 356.649 313.243 358.267 314.604 359.498C315.996 360.684 317.567 361.277 319.316 361.277Z" fill="#535353"/>
<path d="M351.388 367.774C348.959 367.774 346.756 366.953 344.78 365.312C342.837 363.625 341.299 361.322 340.165 358.404C339.031 355.486 338.464 352.18 338.464 348.487C338.464 344.794 339.015 341.534 340.116 338.707C341.218 335.834 342.708 333.577 344.586 331.936C346.497 330.294 348.635 329.474 350.999 329.474C352.878 329.474 354.546 329.975 356.004 330.978C357.494 331.936 358.757 333.258 359.793 334.945C360.83 336.587 361.623 338.456 362.174 340.553C362.725 342.605 363 344.725 363 346.914C363 347.37 362.984 347.894 362.951 348.487C362.919 349.034 362.87 349.604 362.806 350.197H340.796V345.409H360.716L358.967 347.461C359.259 344.953 359.048 342.719 358.336 340.759C357.656 338.752 356.668 337.179 355.372 336.039C354.076 334.854 352.619 334.261 350.999 334.261C349.38 334.261 347.874 334.854 346.481 336.039C345.121 337.225 344.052 338.889 343.274 341.032C342.497 343.13 342.189 345.637 342.351 348.555C342.189 351.474 342.513 354.027 343.323 356.216C344.165 358.359 345.299 360.023 346.724 361.208C348.181 362.394 349.736 362.987 351.388 362.987C353.299 362.987 354.902 362.348 356.198 361.072C357.494 359.795 358.546 358.199 359.356 356.284L362.466 358.609C361.947 360.251 361.154 361.778 360.085 363.192C359.016 364.56 357.737 365.677 356.247 366.543C354.789 367.364 353.17 367.774 351.388 367.774Z" fill="#535353"/>
</svg>
