<svg width="834" height="258" viewBox="0 0 834 258" fill="none" xmlns="http://www.w3.org/2000/svg">
<path d="M210.337 254H341C350.389 254 358 246.389 358 237V229.098L247.262 78.1803C240.4 68.8284 226.394 68.9435 219.687 78.4068L157.372 166.325C152.643 172.996 153.334 182.088 159.016 187.968L190.396 220.445C194.025 224.201 190.468 230.363 185.401 229.098V229.098L210.337 254Z" fill="#535353"/>
<path d="M4 233.492V237C4 246.389 11.6112 254 21 254H210.337L185.401 229.098L108.913 152.715C102.276 146.087 91.525 146.087 84.888 152.715L4 233.492Z" fill="#535353"/>
<path d="M118.414 70.4062C118.414 86.5865 105.28 99.7031 89.0773 99.7031C72.875 99.7031 59.7403 86.5865 59.7403 70.4062C59.7403 54.226 72.875 41.1094 89.0773 41.1094C105.28 41.1094 118.414 54.226 118.414 70.4062Z" fill="#535353"/>
<path d="M4 233.492V237C4 246.389 11.6112 254 21 254H210.337M4 233.492V21C4 11.6112 11.6112 4 21 4H341C350.389 4 358 11.6112 358 21V229.098M4 233.492L84.888 152.715C91.525 146.087 102.276 146.087 108.913 152.715L185.401 229.098M210.337 254H341C350.389 254 358 246.389 358 237V229.098M210.337 254L185.401 229.098M358 229.098L247.262 78.1803C240.4 68.8284 226.394 68.9435 219.687 78.4068L157.372 166.325C152.643 172.996 153.334 182.088 159.016 187.968L190.396 220.445C194.025 224.201 190.468 230.363 185.401 229.098V229.098M118.414 70.4062C118.414 86.5865 105.28 99.7031 89.0773 99.7031C72.875 99.7031 59.7403 86.5865 59.7403 70.4062C59.7403 54.226 72.875 41.1094 89.0773 41.1094C105.28 41.1094 118.414 54.226 118.414 70.4062Z" stroke="#535353" stroke-width="8"/>
<path d="M441.935 105C439.311 105 437.359 104.616 436.079 103.848C434.799 103.08 433.871 102.12 433.295 100.968C429.967 94.12 426.831 87.56 423.887 81.288C421.007 75.016 418.063 68.68 415.055 62.28C415.119 69.192 415.215 76.072 415.343 82.92C415.471 89.768 415.599 96.648 415.727 103.56C415.727 104.52 415.215 105 414.191 105H408.911C405.263 105 402.671 104.296 401.135 102.888C399.663 101.416 398.927 99.272 398.927 96.456C398.927 95.688 398.959 94.408 399.023 92.616C399.151 90.76 399.311 88.584 399.503 86.088C399.695 83.592 399.887 80.872 400.079 77.928C400.335 74.92 400.591 71.88 400.847 68.808C401.231 63.944 401.551 59.912 401.807 56.712C402.063 53.512 402.255 50.824 402.383 48.648C402.575 46.408 402.703 44.52 402.767 42.984C402.831 41.384 402.895 39.816 402.959 38.28C402.959 37.32 403.471 36.84 404.495 36.84H412.175C414.287 36.84 416.015 37.096 417.359 37.608C418.703 38.056 419.791 38.696 420.623 39.528C421.519 40.36 422.223 41.32 422.735 42.408C423.247 43.432 423.727 44.52 424.175 45.672C425.711 49.64 427.055 53.064 428.207 55.944C429.423 58.824 430.479 61.352 431.375 63.528C432.271 65.704 433.039 67.592 433.679 69.192C434.383 70.792 435.023 72.264 435.599 73.608C436.175 74.952 436.751 76.264 437.327 77.544C437.903 78.76 438.511 80.104 439.151 81.576C439.151 77.8 439.119 73.928 439.055 69.96C439.055 65.928 439.023 62.024 438.959 58.248C438.959 54.408 438.927 50.728 438.863 47.208C438.863 43.688 438.863 40.52 438.863 37.704C438.863 37.128 439.407 36.84 440.495 36.84H445.775C447.887 36.84 449.551 37.064 450.767 37.512C452.047 37.896 453.039 38.504 453.743 39.336C454.447 40.104 454.895 41.064 455.087 42.216C455.343 43.368 455.471 44.68 455.471 46.152C455.471 47.752 455.375 50.216 455.183 53.544C454.991 56.808 454.767 60.488 454.511 64.584C454.255 68.68 453.967 72.936 453.647 77.352C453.327 81.704 453.007 85.736 452.687 89.448C452.431 93.16 452.175 96.328 451.919 98.952C451.727 101.512 451.599 103.016 451.535 103.464C451.535 103.976 451.343 104.36 450.959 104.616C450.639 104.872 450.255 105 449.807 105H441.935ZM485.096 105.96C480.68 105.96 477 105.352 474.056 104.136C471.176 102.856 468.872 101.128 467.144 98.952C465.416 96.776 464.2 94.248 463.496 91.368C462.792 88.424 462.44 85.288 462.44 81.96C462.44 78.12 462.888 74.376 463.784 70.728C464.744 67.016 466.344 63.72 468.584 60.84C470.824 57.96 473.768 55.656 477.416 53.928C481.128 52.136 485.736 51.24 491.24 51.24C499.304 51.24 505.064 53.224 508.52 57.192C512.04 61.096 513.8 66.6 513.8 73.704C513.8 75.688 513.64 77.896 513.32 80.328C513.064 82.696 512.52 85.064 511.688 87.432C510.92 89.8 509.832 92.104 508.424 94.344C507.08 96.584 505.352 98.568 503.24 100.296C501.128 102.024 498.568 103.4 495.56 104.424C492.616 105.448 489.128 105.96 485.096 105.96ZM489.608 64.008C487.176 64.008 485.224 64.648 483.752 65.928C482.344 67.144 481.256 68.648 480.488 70.44C479.784 72.168 479.304 74.024 479.048 76.008C478.856 77.928 478.76 79.56 478.76 80.904C478.76 85.128 479.432 88.232 480.776 90.216C482.12 92.2 484.04 93.192 486.536 93.192C488.776 93.192 490.6 92.488 492.008 91.08C493.48 89.672 494.6 87.976 495.368 85.992C496.2 84.008 496.744 81.928 497 79.752C497.32 77.576 497.48 75.752 497.48 74.28C497.48 71.08 496.872 68.584 495.656 66.792C494.504 64.936 492.488 64.008 489.608 64.008ZM552.536 105C548.952 105 546.392 104.296 544.856 102.888C543.32 101.48 542.552 99.464 542.552 96.84C542.552 95.56 542.648 93.384 542.84 90.312C543.032 87.176 543.288 83.624 543.608 79.656C543.928 75.688 544.248 71.496 544.568 67.08C544.888 62.664 545.208 58.504 545.528 54.6C545.848 50.696 546.104 47.272 546.296 44.328C546.488 41.384 546.584 39.368 546.584 38.28C546.584 37.32 547.096 36.84 548.12 36.84H553.4C557.304 36.84 559.928 37.672 561.272 39.336C562.616 41 563.288 43.464 563.288 46.728C563.288 47.048 563.224 48.072 563.096 49.8C563.032 51.528 562.904 53.704 562.712 56.328C562.52 58.952 562.296 61.896 562.04 65.16C561.848 68.36 561.624 71.656 561.368 75.048C561.176 78.44 560.952 81.768 560.696 85.032C560.504 88.232 560.312 91.144 560.12 93.768C559.928 96.392 559.768 98.6 559.64 100.392C559.512 102.12 559.416 103.176 559.352 103.56C559.288 104.072 559.16 104.456 558.968 104.712C558.776 104.904 558.392 105 557.816 105H552.536ZM588.388 87.72C588.196 90.664 587.972 93.48 587.716 96.168C587.46 98.792 587.268 101.096 587.14 103.08C587.076 103.848 586.916 104.36 586.66 104.616C586.404 104.872 585.86 105 585.028 105H581.572C579.588 105 577.956 104.808 576.676 104.424C575.46 103.976 574.468 103.368 573.7 102.6C572.996 101.832 572.484 100.904 572.164 99.816C571.908 98.664 571.78 97.352 571.78 95.88C571.78 94.92 571.812 93.576 571.876 91.848C572.004 90.056 572.196 87.624 572.452 84.552C572.708 81.416 572.996 77.48 573.316 72.744C573.7 67.944 574.148 62.024 574.66 54.984C574.724 53.576 574.884 52.744 575.14 52.488C575.332 52.296 575.844 52.2 576.676 52.2H580.42C582.34 52.2 583.908 52.424 585.124 52.872C586.34 53.32 587.332 53.896 588.1 54.6C588.868 55.304 589.412 56.136 589.732 57.096C590.052 58.056 590.244 59.048 590.308 60.072C592.164 56.616 594.276 54.28 596.644 53.064C599.012 51.848 601.796 51.24 604.996 51.24C606.724 51.24 608.388 51.4 609.988 51.72C611.588 52.04 613.028 52.584 614.308 53.352C615.588 54.12 616.676 55.144 617.572 56.424C618.468 57.64 619.108 59.208 619.492 61.128C621.476 57.416 623.652 54.856 626.02 53.448C628.388 51.976 631.364 51.24 634.948 51.24C636.932 51.24 638.82 51.464 640.612 51.912C642.468 52.296 644.068 53 645.412 54.024C646.756 55.048 647.812 56.456 648.58 58.248C649.412 59.976 649.828 62.152 649.828 64.776C649.828 66.76 649.732 69.192 649.54 72.072C649.348 74.952 649.124 78.088 648.868 81.48C648.612 84.808 648.324 88.264 648.004 91.848C647.684 95.368 647.428 98.76 647.236 102.024C647.172 102.728 647.108 103.272 647.044 103.656C646.98 104.04 646.852 104.328 646.66 104.52C646.532 104.712 646.308 104.84 645.988 104.904C645.668 104.968 645.22 105 644.644 105H641.572C639.524 105 637.86 104.808 636.58 104.424C635.3 104.04 634.308 103.496 633.604 102.792C632.9 102.088 632.388 101.224 632.068 100.2C631.812 99.112 631.684 97.896 631.684 96.552C631.684 95.72 631.716 94.536 631.78 93C631.908 91.464 632.036 89.8 632.164 88.008C632.356 86.216 632.516 84.36 632.644 82.44C632.836 80.52 632.996 78.76 633.124 77.16C633.316 75.496 633.444 74.056 633.508 72.84C633.636 71.624 633.7 70.824 633.7 70.44C633.7 68.776 633.348 67.304 632.644 66.024C632.004 64.744 630.724 64.104 628.804 64.104C627.14 64.104 625.7 64.648 624.484 65.736C623.268 66.824 622.244 68.328 621.412 70.248C620.58 72.168 619.908 74.44 619.396 77.064C618.884 79.688 618.532 82.536 618.34 85.608C618.212 87.592 618.052 89.864 617.86 92.424C617.668 94.984 617.444 98.184 617.188 102.024C617.124 102.728 617.06 103.272 616.996 103.656C616.932 104.04 616.804 104.328 616.612 104.52C616.484 104.712 616.26 104.84 615.94 104.904C615.62 104.968 615.172 105 614.596 105H611.524C609.476 105 607.812 104.808 606.532 104.424C605.252 104.04 604.26 103.496 603.556 102.792C602.852 102.088 602.34 101.224 602.02 100.2C601.764 99.112 601.636 97.896 601.636 96.552C601.636 95.272 601.732 93.416 601.924 90.984C602.18 88.488 602.404 85.928 602.596 83.304C602.852 80.616 603.076 78.088 603.268 75.72C603.524 73.288 603.652 71.528 603.652 70.44C603.652 68.776 603.3 67.304 602.596 66.024C601.956 64.744 600.676 64.104 598.756 64.104C597.028 64.104 595.556 64.744 594.34 66.024C593.124 67.304 592.1 69.032 591.268 71.208C590.5 73.32 589.86 75.816 589.348 78.696C588.9 81.576 588.58 84.584 588.388 87.72ZM655.525 93.192C655.525 87.432 658.117 82.92 663.301 79.656C668.485 76.392 676.133 74.632 686.245 74.376C686.309 73.672 686.341 73.096 686.341 72.648C686.405 72.136 686.437 71.528 686.437 70.824C686.437 68.776 686.053 67.144 685.285 65.928C684.517 64.712 682.917 64.104 680.485 64.104C679.141 64.104 678.053 64.296 677.221 64.68C676.389 65.064 675.717 65.608 675.205 66.312C674.693 66.952 674.277 67.752 673.957 68.712C673.637 69.672 673.349 70.728 673.093 71.88C672.965 72.456 672.677 72.84 672.229 73.032C671.781 73.16 671.077 73.224 670.117 73.224C663.589 73.224 660.325 70.76 660.325 65.832C660.325 63.848 660.773 61.96 661.669 60.168C662.629 58.376 664.005 56.84 665.797 55.56C667.653 54.216 669.957 53.16 672.709 52.392C675.461 51.624 678.661 51.24 682.309 51.24C689.413 51.24 694.565 52.712 697.765 55.656C700.965 58.6 702.565 62.76 702.565 68.136C702.565 68.84 702.469 70.12 702.277 71.976C702.149 73.768 701.957 75.688 701.701 77.736C701.509 79.72 701.317 81.608 701.125 83.4C700.997 85.192 700.933 86.44 700.933 87.144C700.933 88.744 701.221 89.896 701.797 90.6C702.373 91.24 703.013 91.688 703.717 91.944C704.485 92.2 705.157 92.392 705.733 92.52C706.309 92.648 706.597 92.968 706.597 93.48C706.597 94.888 706.405 96.328 706.021 97.8C705.637 99.272 704.997 100.616 704.101 101.832C703.269 103.048 702.085 104.04 700.549 104.808C699.077 105.576 697.253 105.96 695.077 105.96C692.005 105.96 689.701 105.224 688.165 103.752C686.629 102.28 685.605 100.232 685.093 97.608C683.557 99.848 681.541 101.8 679.045 103.464C676.613 105.128 673.413 105.96 669.445 105.96C667.525 105.96 665.701 105.736 663.973 105.288C662.309 104.84 660.837 104.104 659.557 103.08C658.341 102.056 657.349 100.744 656.581 99.144C655.877 97.48 655.525 95.496 655.525 93.192ZM685.381 82.248C683.717 82.248 682.085 82.376 680.485 82.632C678.885 82.888 677.445 83.304 676.165 83.88C674.949 84.392 673.957 85.096 673.189 85.992C672.421 86.888 672.037 87.976 672.037 89.256C672.037 90.728 672.485 91.752 673.381 92.328C674.341 92.904 675.365 93.192 676.453 93.192C677.477 93.192 678.501 92.968 679.525 92.52C680.549 92.072 681.445 91.4 682.213 90.504C683.045 89.544 683.749 88.392 684.325 87.048C684.901 85.704 685.253 84.104 685.381 82.248ZM743.891 93.672C742.291 96.552 740.339 98.696 738.035 100.104C735.731 101.448 732.851 102.12 729.395 102.12C726.771 102.12 724.371 101.704 722.195 100.872C720.019 100.04 718.163 98.728 716.627 96.936C715.091 95.144 713.875 92.904 712.979 90.216C712.147 87.464 711.73 84.2 711.73 80.424C711.73 77.352 712.051 74.12 712.691 70.728C713.331 67.272 714.483 64.104 716.147 61.224C717.875 58.344 720.211 55.976 723.155 54.12C726.099 52.2 729.875 51.24 734.483 51.24C736.403 51.24 738.035 51.464 739.379 51.912C740.787 52.296 741.971 52.84 742.931 53.544C743.955 54.248 744.755 55.08 745.331 56.04C745.971 57 746.451 58.024 746.771 59.112C746.771 59.176 746.771 58.952 746.771 58.44C746.835 57.864 746.899 57.224 746.963 56.52C747.027 55.816 747.059 55.144 747.059 54.504C747.123 53.8 747.155 53.352 747.155 53.16C747.219 52.52 747.635 52.2 748.403 52.2H752.819C756.147 52.2 758.547 52.904 760.019 54.312C761.555 55.656 762.323 58.248 762.323 62.088C762.323 62.6 762.291 63.784 762.227 65.64C762.163 67.432 762.035 69.608 761.843 72.168C761.715 74.728 761.523 77.576 761.267 80.712C761.011 83.784 760.723 86.888 760.403 90.024C760.083 93.16 759.731 96.168 759.347 99.048C758.963 101.928 758.547 104.456 758.099 106.632C757.651 108.808 756.883 110.92 755.795 112.968C754.707 115.016 753.171 116.84 751.187 118.44C749.203 120.04 746.643 121.32 743.507 122.28C740.435 123.24 736.659 123.72 732.179 123.72C728.787 123.72 725.811 123.4 723.251 122.76C720.755 122.12 718.675 121.256 717.011 120.168C715.347 119.144 714.067 117.96 713.171 116.616C712.339 115.272 711.923 113.928 711.923 112.584C711.923 111.368 712.179 110.312 712.691 109.416C713.203 108.52 713.875 107.784 714.707 107.208C715.539 106.632 716.435 106.184 717.395 105.864C718.419 105.608 719.379 105.48 720.275 105.48C721.363 105.48 722.163 105.8 722.674 106.44C723.187 107.08 723.763 107.784 724.403 108.552C725.043 109.384 725.939 110.12 727.091 110.76C728.243 111.4 730.035 111.72 732.467 111.72C736.691 111.72 739.635 110.152 741.299 107.016C743.027 103.944 743.891 99.496 743.891 93.672ZM735.827 89.352C738.131 89.352 739.923 88.808 741.203 87.72C742.547 86.632 743.571 85.32 744.275 83.784C744.979 82.248 745.427 80.648 745.619 78.984C745.811 77.32 745.907 75.88 745.907 74.664C745.907 70.824 745.299 68.104 744.083 66.504C742.931 64.84 741.171 64.008 738.803 64.008C736.435 64.008 734.579 64.648 733.234 65.928C731.891 67.208 730.867 68.744 730.163 70.536C729.523 72.264 729.107 74.024 728.915 75.816C728.723 77.544 728.627 78.888 728.627 79.848C728.627 83.048 729.171 85.448 730.259 87.048C731.347 88.584 733.203 89.352 735.827 89.352ZM792.987 105.96C790.171 105.96 787.355 105.608 784.539 104.904C781.787 104.2 779.291 102.984 777.051 101.256C774.875 99.528 773.083 97.224 771.675 94.344C770.267 91.464 769.563 87.848 769.563 83.496C769.563 81.896 769.691 79.976 769.947 77.736C770.203 75.496 770.683 73.192 771.387 70.824C772.155 68.456 773.179 66.12 774.459 63.816C775.803 61.448 777.531 59.336 779.643 57.48C781.755 55.624 784.315 54.12 787.323 52.968C790.331 51.816 793.915 51.24 798.075 51.24C801.403 51.24 804.219 51.624 806.523 52.392C808.827 53.16 810.683 54.216 812.091 55.56C813.499 56.84 814.523 58.344 815.163 60.072C815.803 61.8 816.123 63.656 816.123 65.64C816.123 68.584 815.515 71.08 814.299 73.128C813.147 75.176 811.611 76.904 809.691 78.312C807.835 79.656 805.755 80.712 803.451 81.48C801.147 82.248 798.875 82.856 796.635 83.304C794.395 83.688 792.315 83.944 790.395 84.072C788.539 84.136 787.099 84.168 786.075 84.168C786.075 85.384 786.235 86.6 786.555 87.816C786.939 88.968 787.483 89.992 788.187 90.888C788.891 91.784 789.819 92.52 790.971 93.096C792.123 93.672 793.531 93.96 795.195 93.96C796.859 93.96 798.139 93.704 799.035 93.192C799.995 92.616 800.763 92.008 801.339 91.368C801.915 90.664 802.395 90.056 802.779 89.544C803.227 88.968 803.803 88.68 804.507 88.68C804.827 88.68 805.371 88.776 806.139 88.968C806.971 89.096 807.803 89.416 808.635 89.928C809.467 90.44 810.203 91.144 810.843 92.04C811.483 92.936 811.803 94.088 811.803 95.496C811.803 97.352 811.227 98.952 810.075 100.296C808.923 101.64 807.419 102.728 805.563 103.56C803.771 104.392 801.755 105 799.515 105.384C797.275 105.768 795.099 105.96 792.987 105.96ZM794.811 64.008C793.403 64.008 792.187 64.424 791.163 65.256C790.203 66.024 789.371 67.016 788.667 68.232C788.027 69.448 787.515 70.792 787.131 72.264C786.811 73.736 786.555 75.144 786.363 76.488C790.331 76.424 793.531 75.752 795.963 74.472C798.459 73.192 799.707 71.368 799.707 69C799.707 67.72 799.291 66.568 798.459 65.544C797.691 64.52 796.475 64.008 794.811 64.008ZM449.652 161.84C451.252 161.84 452.564 162.16 453.588 162.8C454.676 163.376 455.572 164.176 456.276 165.2C456.98 166.16 457.556 167.28 458.004 168.56C458.452 169.84 458.836 171.152 459.156 172.496C461.716 182.864 463.828 191.408 465.492 198.128C467.156 204.848 468.468 210.288 469.428 214.448C470.388 218.544 471.06 221.584 471.444 223.568C471.828 225.552 472.02 226.928 472.02 227.696C472.02 228.592 471.796 229.2 471.348 229.52C470.964 229.84 470.324 230 469.428 230H464.532C461.78 230 459.572 229.68 457.908 229.04C456.308 228.336 455.06 227.344 454.164 226.064C453.332 224.784 452.724 223.248 452.34 221.456C451.956 219.6 451.636 217.52 451.38 215.216H434.676L431.508 228.464C431.188 229.488 430.452 230 429.3 230H424.212C423.188 230 422.132 229.904 421.044 229.712C419.956 229.456 418.964 229.072 418.068 228.56C417.236 228.048 416.532 227.408 415.956 226.64C415.38 225.808 415.092 224.816 415.092 223.664C415.092 222.256 415.54 219.952 416.436 216.752C417.332 213.552 418.452 209.936 419.796 205.904C421.204 201.808 422.74 197.552 424.404 193.136C426.132 188.656 427.796 184.432 429.396 180.464C430.996 176.496 432.436 173.008 433.716 170C435.06 166.992 436.084 164.88 436.788 163.664C437.3 162.768 437.748 162.256 438.132 162.128C438.58 161.936 439.38 161.84 440.532 161.84H449.652ZM438.132 201.296H449.172L445.14 175.952L438.132 201.296ZM497.717 217.808C498.485 215.12 499.189 212.464 499.829 209.84C500.533 207.216 501.205 204.432 501.845 201.488C502.549 198.48 503.285 195.216 504.053 191.696C504.885 188.112 505.845 184.048 506.933 179.504C507.125 178.608 507.413 178.032 507.797 177.776C508.181 177.456 509.013 177.296 510.293 177.296C511.253 177.296 512.533 177.328 514.133 177.392C515.733 177.456 517.301 177.68 518.837 178.064C520.373 178.448 521.685 179.024 522.773 179.792C523.925 180.56 524.501 181.616 524.501 182.96C524.501 184.048 524.117 185.808 523.349 188.24C522.581 190.672 521.589 193.456 520.373 196.592C519.157 199.664 517.781 202.896 516.245 206.288C514.773 209.68 513.333 212.88 511.925 215.888C510.517 218.896 509.205 221.552 507.989 223.856C506.773 226.096 505.877 227.664 505.301 228.56C504.789 229.264 504.341 229.68 503.957 229.808C503.573 229.936 502.933 230 502.037 230H493.493C492.149 230 491.029 229.776 490.133 229.328C489.301 228.816 488.597 228.176 488.021 227.408C487.445 226.64 486.965 225.776 486.581 224.816C486.197 223.792 485.845 222.736 485.525 221.648C483.669 215.248 482.037 209.776 480.629 205.232C479.285 200.624 478.133 196.784 477.173 193.712C476.213 190.64 475.445 188.208 474.869 186.416C474.293 184.56 473.845 183.152 473.525 182.192C473.205 181.168 472.981 180.496 472.853 180.176C472.725 179.792 472.661 179.536 472.661 179.408C472.725 178.96 473.045 178.48 473.621 177.968C474.197 177.456 474.933 177.2 475.829 177.2C478.773 177.2 481.269 177.328 483.317 177.584C485.429 177.776 487.157 178.16 488.501 178.736C489.909 179.312 490.965 180.112 491.669 181.136C492.437 182.16 492.981 183.504 493.301 185.168C493.365 185.616 493.493 186.512 493.685 187.856C493.877 189.2 494.069 190.832 494.261 192.752C494.517 194.608 494.805 196.688 495.125 198.992C495.445 201.232 495.733 203.504 495.989 205.808C496.309 208.048 496.597 210.224 496.853 212.336C497.173 214.448 497.461 216.272 497.717 217.808ZM525.728 218.192C525.728 212.432 528.32 207.92 533.504 204.656C538.688 201.392 546.336 199.632 556.448 199.376C556.512 198.672 556.544 198.096 556.544 197.648C556.608 197.136 556.64 196.528 556.64 195.824C556.64 193.776 556.256 192.144 555.488 190.928C554.72 189.712 553.12 189.104 550.688 189.104C549.344 189.104 548.256 189.296 547.424 189.68C546.592 190.064 545.92 190.608 545.408 191.312C544.896 191.952 544.48 192.752 544.16 193.712C543.84 194.672 543.552 195.728 543.296 196.88C543.168 197.456 542.88 197.84 542.432 198.032C541.984 198.16 541.28 198.224 540.32 198.224C533.792 198.224 530.528 195.76 530.528 190.832C530.528 188.848 530.976 186.96 531.872 185.168C532.832 183.376 534.208 181.84 536 180.56C537.856 179.216 540.16 178.16 542.912 177.392C545.664 176.624 548.864 176.24 552.512 176.24C559.616 176.24 564.768 177.712 567.968 180.656C571.168 183.6 572.768 187.76 572.768 193.136C572.768 193.84 572.672 195.12 572.48 196.976C572.352 198.768 572.16 200.688 571.904 202.736C571.712 204.72 571.52 206.608 571.328 208.4C571.2 210.192 571.136 211.44 571.136 212.144C571.136 213.744 571.424 214.896 572 215.6C572.576 216.24 573.216 216.688 573.92 216.944C574.688 217.2 575.36 217.392 575.936 217.52C576.512 217.648 576.8 217.968 576.8 218.48C576.8 219.888 576.608 221.328 576.224 222.8C575.84 224.272 575.2 225.616 574.304 226.832C573.472 228.048 572.288 229.04 570.752 229.808C569.28 230.576 567.456 230.96 565.28 230.96C562.208 230.96 559.904 230.224 558.368 228.752C556.832 227.28 555.808 225.232 555.296 222.608C553.76 224.848 551.744 226.8 549.248 228.464C546.816 230.128 543.616 230.96 539.648 230.96C537.728 230.96 535.904 230.736 534.176 230.288C532.512 229.84 531.04 229.104 529.76 228.08C528.544 227.056 527.552 225.744 526.784 224.144C526.08 222.48 525.728 220.496 525.728 218.192ZM555.584 207.248C553.92 207.248 552.288 207.376 550.688 207.632C549.088 207.888 547.648 208.304 546.368 208.88C545.152 209.392 544.16 210.096 543.392 210.992C542.624 211.888 542.24 212.976 542.24 214.256C542.24 215.728 542.688 216.752 543.584 217.328C544.544 217.904 545.568 218.192 546.656 218.192C547.68 218.192 548.704 217.968 549.728 217.52C550.752 217.072 551.648 216.4 552.416 215.504C553.248 214.544 553.952 213.392 554.528 212.048C555.104 210.704 555.456 209.104 555.584 207.248ZM592.59 230C590.606 230 588.974 229.808 587.694 229.424C586.478 228.976 585.486 228.368 584.718 227.6C584.014 226.832 583.502 225.904 583.182 224.816C582.926 223.664 582.798 222.352 582.798 220.88C582.798 219.92 582.83 218.576 582.894 216.848C583.022 215.056 583.214 212.624 583.47 209.552C583.726 206.416 584.014 202.48 584.334 197.744C584.718 192.944 585.166 187.024 585.678 179.984C585.742 178.576 585.902 177.744 586.158 177.488C586.35 177.296 586.862 177.2 587.694 177.2H591.438C593.422 177.2 595.022 177.392 596.238 177.776C597.518 178.16 598.51 178.736 599.214 179.504C599.982 180.272 600.494 181.2 600.75 182.288C601.07 183.376 601.23 184.592 601.23 185.936C601.23 186.896 601.166 188.336 601.038 190.256C600.91 192.176 600.718 194.8 600.462 198.128C600.27 201.392 599.982 205.488 599.598 210.416C599.214 215.28 598.734 221.168 598.158 228.08C598.094 228.848 597.934 229.36 597.678 229.616C597.422 229.872 596.878 230 596.046 230H592.59ZM585.774 165.872C585.774 163.312 586.702 161.296 588.558 159.824C590.414 158.352 592.91 157.616 596.046 157.616C598.798 157.616 600.782 158.192 601.998 159.344C603.278 160.432 603.918 161.904 603.918 163.76C603.918 166.128 603.022 168.112 601.23 169.712C599.502 171.248 596.942 172.016 593.55 172.016C588.366 172.016 585.774 169.968 585.774 165.872ZM606.822 218.192C606.822 212.432 609.414 207.92 614.598 204.656C619.782 201.392 627.43 199.632 637.542 199.376C637.606 198.672 637.638 198.096 637.638 197.648C637.702 197.136 637.734 196.528 637.734 195.824C637.734 193.776 637.35 192.144 636.582 190.928C635.814 189.712 634.214 189.104 631.782 189.104C630.438 189.104 629.35 189.296 628.518 189.68C627.686 190.064 627.014 190.608 626.502 191.312C625.99 191.952 625.574 192.752 625.254 193.712C624.934 194.672 624.646 195.728 624.39 196.88C624.262 197.456 623.974 197.84 623.526 198.032C623.078 198.16 622.374 198.224 621.414 198.224C614.886 198.224 611.622 195.76 611.622 190.832C611.622 188.848 612.07 186.96 612.966 185.168C613.926 183.376 615.302 181.84 617.094 180.56C618.95 179.216 621.254 178.16 624.006 177.392C626.758 176.624 629.958 176.24 633.606 176.24C640.71 176.24 645.862 177.712 649.062 180.656C652.262 183.6 653.862 187.76 653.862 193.136C653.862 193.84 653.766 195.12 653.574 196.976C653.446 198.768 653.254 200.688 652.998 202.736C652.806 204.72 652.614 206.608 652.422 208.4C652.294 210.192 652.23 211.44 652.23 212.144C652.23 213.744 652.518 214.896 653.094 215.6C653.67 216.24 654.31 216.688 655.014 216.944C655.782 217.2 656.454 217.392 657.03 217.52C657.606 217.648 657.894 217.968 657.894 218.48C657.894 219.888 657.702 221.328 657.318 222.8C656.934 224.272 656.294 225.616 655.398 226.832C654.566 228.048 653.382 229.04 651.846 229.808C650.374 230.576 648.55 230.96 646.374 230.96C643.302 230.96 640.998 230.224 639.462 228.752C637.926 227.28 636.902 225.232 636.39 222.608C634.854 224.848 632.838 226.8 630.342 228.464C627.91 230.128 624.71 230.96 620.742 230.96C618.822 230.96 616.998 230.736 615.27 230.288C613.606 229.84 612.134 229.104 610.854 228.08C609.638 227.056 608.646 225.744 607.878 224.144C607.174 222.48 606.822 220.496 606.822 218.192ZM636.678 207.248C635.014 207.248 633.382 207.376 631.782 207.632C630.182 207.888 628.742 208.304 627.462 208.88C626.246 209.392 625.254 210.096 624.486 210.992C623.718 211.888 623.334 212.976 623.334 214.256C623.334 215.728 623.782 216.752 624.678 217.328C625.638 217.904 626.662 218.192 627.75 218.192C628.774 218.192 629.798 217.968 630.822 217.52C631.846 217.072 632.742 216.4 633.51 215.504C634.342 214.544 635.046 213.392 635.622 212.048C636.198 210.704 636.55 209.104 636.678 207.248ZM685.779 230.96C680.851 230.96 676.947 230.256 674.067 228.848C671.187 227.376 669.011 225.552 667.539 223.376C666.067 221.2 665.139 218.864 664.755 216.368C664.371 213.808 664.179 211.472 664.179 209.36C664.179 208.528 664.243 206.896 664.371 204.464C664.563 202.032 664.787 199.216 665.043 196.016C665.299 192.816 665.555 189.424 665.811 185.84C666.067 182.192 666.323 178.768 666.579 175.568C666.835 172.304 667.027 169.424 667.155 166.928C667.347 164.432 667.443 162.704 667.443 161.744C667.443 160.336 667.539 159.536 667.731 159.344C667.923 159.088 668.499 158.96 669.459 158.96H673.203C675.123 158.96 676.723 159.184 678.003 159.632C679.283 160.08 680.307 160.688 681.075 161.456C681.843 162.224 682.387 163.12 682.707 164.144C683.027 165.104 683.187 166.16 683.187 167.312C683.187 168.4 683.059 170.512 682.803 173.648C682.611 176.784 682.355 180.464 682.035 184.688C683.699 181.808 685.587 179.696 687.699 178.352C689.811 176.944 692.595 176.24 696.051 176.24C701.875 176.24 706.323 178.16 709.395 182C712.531 185.84 714.099 191.568 714.099 199.184C714.099 201.168 713.939 203.344 713.619 205.712C713.363 208.08 712.851 210.448 712.083 212.816C711.379 215.12 710.355 217.392 709.011 219.632C707.731 221.808 706.035 223.728 703.923 225.392C701.811 227.056 699.251 228.4 696.243 229.424C693.299 230.448 689.811 230.96 685.779 230.96ZM690.099 189.008C687.795 189.008 685.971 189.616 684.627 190.832C683.347 192.048 682.355 193.52 681.651 195.248C680.947 196.976 680.499 198.832 680.307 200.816C680.115 202.736 680.019 204.432 680.019 205.904C680.019 210.32 680.627 213.488 681.843 215.408C683.059 217.264 684.883 218.192 687.315 218.192C689.619 218.192 691.411 217.488 692.691 216.08C694.035 214.608 695.027 212.88 695.667 210.896C696.371 208.912 696.819 206.896 697.011 204.848C697.203 202.8 697.299 201.2 697.299 200.048C697.299 196.464 696.755 193.744 695.667 191.888C694.579 189.968 692.723 189.008 690.099 189.008ZM732.494 230.864C728.526 230.864 725.678 229.808 723.95 227.696C722.222 225.584 721.358 222.096 721.358 217.232C721.358 216.464 721.39 215.504 721.454 214.352C721.582 213.2 721.71 211.728 721.838 209.936C722.03 208.08 722.254 205.808 722.51 203.12C722.766 200.432 723.022 197.168 723.278 193.328C723.598 189.488 723.918 184.976 724.238 179.792C724.622 174.608 725.006 168.592 725.39 161.744C725.454 160.336 725.614 159.504 725.87 159.248C726.062 159.056 726.574 158.96 727.406 158.96H731.15C733.07 158.96 734.67 159.184 735.95 159.632C737.23 160.08 738.254 160.688 739.022 161.456C739.79 162.224 740.334 163.12 740.654 164.144C740.974 165.104 741.134 166.128 741.134 167.216C741.134 168.496 741.038 170.352 740.846 172.784C740.718 175.152 740.526 177.84 740.27 180.848C740.014 183.856 739.758 186.992 739.502 190.256C739.246 193.52 738.99 196.656 738.734 199.664C738.478 202.608 738.254 205.264 738.062 207.632C737.934 210 737.87 211.792 737.87 213.008C737.87 214.672 738.158 215.856 738.734 216.56C739.374 217.264 740.046 217.776 740.75 218.096C741.454 218.352 742.094 218.544 742.67 218.672C743.31 218.736 743.63 218.928 743.63 219.248C743.63 220.656 743.47 222.064 743.15 223.472C742.83 224.816 742.254 226.064 741.422 227.216C740.59 228.304 739.438 229.2 737.966 229.904C736.558 230.544 734.734 230.864 732.494 230.864ZM772.503 230.96C769.687 230.96 766.871 230.608 764.055 229.904C761.303 229.2 758.807 227.984 756.567 226.256C754.391 224.528 752.599 222.224 751.191 219.344C749.783 216.464 749.079 212.848 749.079 208.496C749.079 206.896 749.207 204.976 749.463 202.736C749.719 200.496 750.199 198.192 750.903 195.824C751.671 193.456 752.695 191.12 753.975 188.816C755.319 186.448 757.047 184.336 759.159 182.48C761.271 180.624 763.831 179.12 766.839 177.968C769.847 176.816 773.431 176.24 777.591 176.24C780.919 176.24 783.735 176.624 786.039 177.392C788.343 178.16 790.199 179.216 791.607 180.56C793.015 181.84 794.039 183.344 794.679 185.072C795.319 186.8 795.639 188.656 795.639 190.64C795.639 193.584 795.031 196.08 793.815 198.128C792.663 200.176 791.127 201.904 789.207 203.312C787.351 204.656 785.271 205.712 782.967 206.48C780.663 207.248 778.391 207.856 776.151 208.304C773.911 208.688 771.831 208.944 769.911 209.072C768.055 209.136 766.615 209.168 765.591 209.168C765.591 210.384 765.751 211.6 766.071 212.816C766.455 213.968 766.999 214.992 767.703 215.888C768.407 216.784 769.335 217.52 770.487 218.096C771.639 218.672 773.047 218.96 774.711 218.96C776.375 218.96 777.655 218.704 778.551 218.192C779.511 217.616 780.279 217.008 780.855 216.368C781.431 215.664 781.911 215.056 782.295 214.544C782.743 213.968 783.319 213.68 784.023 213.68C784.343 213.68 784.887 213.776 785.655 213.968C786.487 214.096 787.319 214.416 788.151 214.928C788.983 215.44 789.719 216.144 790.359 217.04C790.999 217.936 791.319 219.088 791.319 220.496C791.319 222.352 790.743 223.952 789.591 225.296C788.439 226.64 786.935 227.728 785.079 228.56C783.287 229.392 781.271 230 779.031 230.384C776.791 230.768 774.615 230.96 772.503 230.96ZM774.327 189.008C772.919 189.008 771.703 189.424 770.679 190.256C769.719 191.024 768.887 192.016 768.183 193.232C767.543 194.448 767.031 195.792 766.647 197.264C766.327 198.736 766.071 200.144 765.879 201.488C769.847 201.424 773.047 200.752 775.479 199.472C777.975 198.192 779.223 196.368 779.223 194C779.223 192.72 778.807 191.568 777.975 190.544C777.207 189.52 775.991 189.008 774.327 189.008Z" fill="#535353"/>
</svg>
