<svg width="132" height="118" viewBox="0 0 132 118" fill="none" xmlns="http://www.w3.org/2000/svg">
<path d="M24.9292 35V114C24.9292 114.552 25.3769 115 25.9292 115H127.622C128.175 115 128.622 114.552 128.622 114V35M24.9292 35V12C24.9292 11.4477 25.3769 11 25.9292 11H127.622C128.175 11 128.622 11.4477 128.622 12V35M24.9292 35H128.622M24.9292 35C26.208 49.1082 23.5505 80.4887 3.4675 97.099C2.71839 97.7186 3.14085 99 4.11298 99H104.322C104.562 99 104.785 98.9214 104.965 98.7637C114.341 90.5355 131.782 66.6908 128.622 35M48.8584 3V19M76.7758 3V19M104.693 3V19" stroke="white" stroke-width="6" stroke-linecap="round"/>
</svg>
