<svg width="135" height="134" viewBox="0 0 135 134" fill="none" xmlns="http://www.w3.org/2000/svg">
<path d="M43.6299 23.3175C43.6299 34.5385 34.5346 43.6349 23.315 43.6349C12.0953 43.6349 3 34.5385 3 23.3175C3 12.0964 12.0953 3 23.315 3C34.5346 3 43.6299 12.0964 43.6299 23.3175ZM43.6299 23.3175H125.906M92.3858 67C92.3858 78.221 83.2905 87.3175 72.0709 87.3175C60.8512 87.3175 51.7559 78.221 51.7559 67M92.3858 67C92.3858 55.779 83.2905 46.6825 72.0709 46.6825C60.8512 46.6825 51.7559 55.779 51.7559 67M92.3858 67H125.906M51.7559 67H3M91.3701 110.683C91.3701 121.904 100.465 131 111.685 131C122.905 131 132 121.904 132 110.683C132 99.4615 122.905 90.3651 111.685 90.3651C100.465 90.3651 91.3701 99.4615 91.3701 110.683ZM91.3701 110.683H3" stroke="#595959" stroke-width="6" stroke-linecap="round"/>
</svg>
