<svg width="128" height="128" viewBox="0 0 128 128" fill="none" xmlns="http://www.w3.org/2000/svg">
<path d="M64.0143 31.1824C45.853 31.1824 31.204 45.8347 31.204 64C31.204 82.1653 45.853 96.8176 64.0143 96.8176C82.1756 96.8176 96.8245 82.1653 96.8245 64C96.8245 45.8347 82.1756 31.1824 64.0143 31.1824ZM64.0143 85.3357C52.278 85.3357 42.6833 75.7675 42.6833 64C42.6833 52.2325 52.2494 42.6643 64.0143 42.6643C75.7791 42.6643 85.3452 52.2325 85.3452 64C85.3452 75.7675 75.7506 85.3357 64.0143 85.3357ZM105.82 29.84C105.82 34.0957 102.393 37.4946 98.1667 37.4946C93.9119 37.4946 90.5138 34.0672 90.5138 29.84C90.5138 25.6129 93.9404 22.1854 98.1667 22.1854C102.393 22.1854 105.82 25.6129 105.82 29.84ZM127.55 37.6088C127.065 27.3551 124.723 18.2725 117.213 10.7892C109.732 3.30604 100.651 0.963963 90.3996 0.449849C79.834 -0.14995 48.166 -0.14995 37.6004 0.449849C27.3776 0.935401 18.2969 3.27747 10.7868 10.7607C3.27674 18.2439 0.963748 27.3266 0.449749 37.5803C-0.149916 48.1482 -0.149916 79.8233 0.449749 90.3912C0.935192 100.645 3.27674 109.728 10.7868 117.211C18.2969 124.694 27.349 127.036 37.6004 127.55C48.166 128.15 79.834 128.15 90.3996 127.55C100.651 127.065 109.732 124.723 117.213 117.211C124.695 109.728 127.036 100.645 127.55 90.3912C128.15 79.8233 128.15 48.1767 127.55 37.6088ZM113.901 101.73C111.673 107.328 107.362 111.641 101.736 113.898C93.3122 117.239 73.3234 116.468 64.0143 116.468C54.7052 116.468 34.6878 117.211 26.2925 113.898C20.6956 111.67 16.3837 107.357 14.1278 101.73C10.7868 93.3045 11.5578 73.3112 11.5578 64C11.5578 54.6888 10.8154 34.667 14.1278 26.2698C16.3552 20.6716 20.667 16.3588 26.2925 14.1024C34.7163 10.7607 54.7052 11.5319 64.0143 11.5319C73.3234 11.5319 93.3408 10.7892 101.736 14.1024C107.333 16.3302 111.645 20.6431 113.901 26.2698C117.242 34.6955 116.471 54.6888 116.471 64C116.471 73.3112 117.242 93.333 113.901 101.73Z" fill="white"/>
</svg>
