<svg width="134" height="134" viewBox="0 0 134 134" fill="none" xmlns="http://www.w3.org/2000/svg">
<path d="M72.8182 26.2727C83.1616 27.5657 103.848 35.5818 103.848 57.303M131 57.303C125.828 40.4949 107.727 6.10303 76.697 3M3.22847 29.7699C8.2547 90.1734 67.3223 120.978 100.069 130.023C102.417 130.671 104.898 129.95 106.62 128.228L122.171 112.677C124.905 109.943 124.905 105.511 122.171 102.778L101.041 81.6467C98.307 78.913 93.8748 78.9131 91.1412 81.6467L83.4882 89.2997C81.6906 91.0973 79.0422 91.8195 76.674 90.8951C59.7236 84.279 48.543 68.0348 43.5601 57.5611C42.3808 55.0824 43.0341 52.178 44.9751 50.237L52.3533 42.8588C55.087 40.1252 55.0869 35.693 52.3533 32.9593L30.7929 11.399C28.2329 8.83894 24.1432 8.65343 21.3619 10.9712L5.6765 24.0423C3.9908 25.4471 3.04651 27.5831 3.22847 29.7699Z" stroke="white" stroke-width="6" stroke-linecap="round"/>
</svg>
