<svg width="128" height="128" viewBox="0 0 128 128" fill="none" xmlns="http://www.w3.org/2000/svg">
<path d="M35.3984 89.5996C35.3984 91.2565 36.7416 92.5996 38.3984 92.5996C40.0553 92.5996 41.3984 91.2565 41.3984 89.5996H35.3984ZM40.5198 29.8783C39.3482 28.7067 37.4487 28.7067 36.2771 29.8783L17.1852 48.9702C16.0137 50.1417 16.0137 52.0412 17.1852 53.2128C18.3568 54.3844 20.2563 54.3844 21.4279 53.2128L38.3984 36.2423L55.369 53.2128C56.5406 54.3844 58.4401 54.3844 59.6116 53.2128C60.7832 52.0412 60.7832 50.1417 59.6116 48.9702L40.5198 29.8783ZM38.3984 89.5996H41.3984V31.9996H38.3984H35.3984V89.5996H38.3984Z" fill="#595959"/>
<path d="M86.6016 38.4004C86.6016 36.7435 87.9447 35.4004 89.6016 35.4004C91.2584 35.4004 92.6016 36.7435 92.6016 38.4004H86.6016ZM91.7229 98.1217C90.5513 99.2933 88.6518 99.2933 87.4802 98.1217L68.3884 79.0298C67.2168 77.8583 67.2168 75.9588 68.3884 74.7872C69.5599 73.6156 71.4594 73.6156 72.631 74.7872L89.6016 91.7577L106.572 74.7872C107.744 73.6156 109.643 73.6156 110.815 74.7872C111.986 75.9588 111.986 77.8583 110.815 79.0298L91.7229 98.1217ZM89.6016 38.4004H92.6016V96.0004H89.6016H86.6016V38.4004H89.6016Z" fill="#595959"/>
</svg>
