<svg width="600" height="315" viewBox="0 0 600 315" fill="none" xmlns="http://www.w3.org/2000/svg">
<path d="M317.494 195.583C315.994 175.1 282.997 173.601 282.997 197.082M352.991 154.117C352.991 159.635 348.515 164.109 342.992 164.109C337.47 164.109 332.993 159.635 332.993 154.117C332.993 148.598 337.47 144.125 342.992 144.125C348.515 144.125 352.991 148.598 352.991 154.117ZM266.998 154.117C266.998 159.635 262.522 164.109 256.999 164.109C251.477 164.109 247 159.635 247 154.117C247 148.598 251.477 144.125 256.999 144.125C262.522 144.125 266.998 148.598 266.998 154.117Z" stroke="black" stroke-width="7" stroke-linecap="round"/>
<path d="M115.433 22.9292C118.008 21.4436 120.668 20.5298 123.413 20.1876C126.144 19.821 128.793 19.9917 131.361 20.6998C133.903 21.422 136.28 22.6487 138.49 24.3798C140.7 26.1108 142.576 28.3119 144.12 30.9831C144.842 32.2329 145.461 33.5586 145.976 34.9603C146.502 36.3233 146.874 37.7589 147.091 39.2672C147.298 40.8141 147.308 42.4426 147.118 44.1528C146.94 45.8243 146.507 47.5934 145.82 49.4602C145.316 50.7962 144.616 52.4419 143.718 54.3974C142.821 56.3529 142.18 58.0457 141.797 59.476C141.316 61.1909 141.173 62.9237 141.367 64.6742C141.415 65.1118 141.503 65.5502 141.63 65.9895C142.297 68.2937 141.949 71.0533 139.871 72.252V72.252C138.312 73.1511 136.264 72.912 135.301 71.3922C135.227 71.2741 135.156 71.157 135.089 71.041C133.956 69.0805 133.377 67.1439 133.35 65.2311C133.324 63.3184 133.621 61.3989 134.242 59.4727C134.862 57.5466 135.575 55.5831 136.381 53.5824C137.197 51.5431 137.889 49.5429 138.456 47.5819C139.034 45.5822 139.269 43.584 139.162 41.5874C139.079 39.5766 138.45 37.5542 137.275 35.5202C135.335 32.1629 132.627 29.8532 129.151 28.591C127.491 27.9807 125.732 27.7376 123.874 27.8616C122.027 27.9471 120.221 28.4991 118.455 29.5178C116.297 30.7629 114.751 32.3896 113.819 34.3979C112.897 36.3675 112.543 38.4996 112.757 40.7941C112.971 43.0886 113.694 45.3018 114.926 47.4338C115.251 47.9975 115.61 48.5908 116.003 49.2138V49.2138C116.709 50.2379 116.584 51.654 115.612 52.4302L113.726 53.9363C112.394 54.9996 110.44 54.9647 109.416 53.6024V53.6024C108.875 52.8361 108.378 52.0609 107.925 51.2767C106.509 48.8261 105.6 46.2627 105.198 43.5864C104.821 40.8961 104.943 38.2772 105.564 35.7297C106.185 33.1823 107.323 30.7941 108.977 28.565C110.632 26.3359 112.784 24.4573 115.433 22.9292Z" fill="#FF8416" stroke="#FF8416" stroke-width="5" stroke-linecap="round"/>
<path d="M448.999 146L453.499 150.496M453.499 150.496L457.999 154.993M453.499 150.496L448.999 154.993M453.499 150.496L457.999 146M455.499 204.952C455.499 207.711 453.261 209.948 450.5 209.948C447.738 209.948 445.5 207.711 445.5 204.952C445.5 202.193 447.738 199.956 450.5 199.956C453.261 199.956 455.499 202.193 455.499 204.952Z" stroke="#FF8416" stroke-width="5" stroke-linecap="round"/>
<path d="M146.499 235.442V242.437M146.499 242.437V249.431M146.499 242.437H153.999M146.499 242.437H139M149 169.996C149 172.755 146.761 174.992 144 174.992C141.239 174.992 139 172.755 139 169.996C139 167.237 141.239 165 144 165C146.761 165 149 167.237 149 169.996Z" stroke="#FF8416" stroke-width="5" stroke-linecap="round"/>
<path d="M313.219 20H214C205.163 20 198 27.1634 198 36V269.795C198 281.521 210.197 289.264 220.809 284.274L292.992 250.33C297.277 248.315 302.233 248.301 306.529 250.292L380.272 284.467C390.876 289.382 403 281.638 403 269.95V114.646M313.219 20L403 114.646M313.219 20V98.6463C313.219 107.483 320.382 114.646 329.219 114.646H403" stroke="black" stroke-width="6"/>
</svg>
