<svg width="128" height="96" viewBox="0 0 128 96" fill="none" xmlns="http://www.w3.org/2000/svg">
<path d="M125.325 15.0208C123.853 9.10825 119.516 4.45175 114.009 2.8715C104.027 0 64 0 64 0C64 0 23.9735 0 13.9912 2.8715C8.48413 4.452 4.14679 9.10825 2.67468 15.0208C0 25.7375 0 48.097 0 48.097C0 48.097 0 70.4565 2.67468 81.1732C4.14679 87.0857 8.48413 91.5482 13.9912 93.1285C23.9735 96 64 96 64 96C64 96 104.027 96 114.009 93.1285C119.516 91.5482 123.853 87.0857 125.325 81.1732C128 70.4565 128 48.097 128 48.097C128 48.097 128 25.7375 125.325 15.0208ZM50.909 68.3978V27.7962L84.3634 48.0975L50.909 68.3978Z" fill="white"/>
</svg>
