<svg width="25" height="25" viewBox="0 0 25 25" fill="none" xmlns="http://www.w3.org/2000/svg">
<path d="M15.0299 7C14.516 7.00398 14.012 7.15843 13.5681 7.44796C13.1242 7.73748 12.7559 8.15197 12.5 8.65012C12.2441 8.15197 11.8758 7.73748 11.4319 7.44796C10.988 7.15843 10.484 7.00398 9.97009 7C9.17267 7.01194 8.41208 7.37707 7.85526 8.01522C7.29845 8.65338 6.99093 9.51243 7.0002 10.4038C7.00439 11.2234 7.26908 12.0147 7.74702 12.6363L12.2916 17.9037C12.3469 17.9654 12.4219 18 12.5 18C12.5781 18 12.6531 17.9654 12.7084 17.9037L17.2703 12.6169C17.7386 11.9979 17.9969 11.2144 17.9998 10.4038C18.0091 9.51243 17.7015 8.65338 17.1447 8.01522C16.5879 7.37707 15.8273 7.01194 15.0299 7Z" stroke="#595959"/>
<rect x="0.5" y="0.5" width="24" height="24" rx="12" stroke="#595959"/>
</svg>
