<svg width="134" height="134" viewBox="0 0 134 134" fill="none" xmlns="http://www.w3.org/2000/svg">
<path d="M62.4067 121.866C62.4505 120.64 62.2468 119.417 61.8078 118.271C61.3687 117.126 60.7034 116.08 59.8514 115.197C58.9995 114.314 57.9784 113.612 56.8491 113.132C55.7198 112.652 54.5054 112.405 53.2785 112.405C52.0516 112.405 50.8372 112.652 49.7079 113.132C48.5786 113.612 47.5575 114.314 46.7056 115.197C45.8536 116.08 45.1883 117.126 44.7493 118.271C44.3103 119.417 44.1066 120.64 44.1503 121.866C44.2348 124.23 45.2335 126.47 46.9361 128.113C48.6387 129.756 50.9125 130.674 53.2785 130.674C55.6446 130.674 57.9183 129.756 59.6209 128.113C61.3236 126.47 62.3222 124.23 62.4067 121.866ZM112.742 121.866C112.754 120.045 112.225 118.262 111.222 116.743C110.219 115.223 108.787 114.036 107.109 113.331C105.43 112.627 103.58 112.436 101.793 112.784C100.006 113.133 98.3627 114.003 97.0714 115.287C95.78 116.57 94.8987 118.208 94.5393 119.993C94.1799 121.777 94.3585 123.629 95.0525 125.312C95.7465 126.995 96.9246 128.434 98.4374 129.447C99.9503 130.46 101.73 131 103.55 131C104.755 131.008 105.949 130.777 107.064 130.322C108.179 129.866 109.192 129.194 110.047 128.345C110.901 127.497 111.579 126.487 112.042 125.375C112.504 124.263 112.743 123.07 112.742 121.866Z" stroke="#963A0B" stroke-width="6" stroke-linecap="round" stroke-linejoin="round"/>
<path d="M117.297 99.0462H38.9542C37.855 99.0425 36.7941 98.6419 35.9667 97.9182C35.1394 97.1945 34.6012 96.1963 34.4512 95.1073L21.9428 6.9389C21.7918 5.85141 21.2541 4.85472 20.4282 4.13135C19.6023 3.40798 18.5435 3.00635 17.4457 3H3" stroke="#963A0B" stroke-width="6" stroke-linecap="round" stroke-linejoin="round"/>
<path d="M131.001 30.4482L122.559 76.9703C122.368 78.0247 121.812 78.9784 120.989 79.6644C120.166 80.3504 119.128 80.7252 118.056 80.723H32.3945" stroke="#963A0B" stroke-width="6" stroke-linecap="round" stroke-linejoin="round"/>
</svg>
