<svg width="128" height="128" viewBox="0 0 128 128" fill="none" xmlns="http://www.w3.org/2000/svg">
<path d="M40.3693 0.227213C40.7433 0.0655117 41.1418 -0.0112473 41.5421 0.00132946C41.9424 0.0139062 42.3365 0.115572 42.702 0.300507C43.0675 0.485442 43.3971 0.750016 43.6719 1.07908C43.9468 1.40815 44.1616 1.79526 44.3039 2.21824L49.3123 17.0229C49.4552 17.4453 49.5232 17.8954 49.5122 18.3474C49.5013 18.7995 49.4116 19.2447 49.2484 19.6576C49.0852 20.0705 48.8516 20.443 48.561 20.7539C48.2704 21.0648 47.9285 21.308 47.5547 21.4695C47.181 21.6311 46.7828 21.7079 46.3827 21.6955C45.9827 21.6831 45.5888 21.5818 45.2235 21.3973C44.8581 21.2129 44.5285 20.9489 44.2534 20.6205C43.9783 20.2921 43.7631 19.9056 43.6202 19.4833L38.6118 4.67383C38.4687 4.25117 38.4008 3.80077 38.4119 3.34841C38.423 2.89605 38.513 2.45061 38.6766 2.03759C38.8403 1.62457 39.0744 1.25207 39.3655 0.941424C39.6567 0.630776 39.9992 0.388075 40.3735 0.227213H40.3693ZM14.2157 11.1873C13.9329 10.8676 13.5971 10.6141 13.2275 10.4411C12.8579 10.2681 12.4618 10.179 12.0618 10.179C11.6617 10.179 11.2656 10.2681 10.8961 10.4411C10.5265 10.6141 10.1907 10.8676 9.90782 11.1873C9.33656 11.8329 9.01563 12.7086 9.01562 13.6216C9.01562 14.5346 9.33656 15.4102 9.90782 16.0558L24.631 32.6951C25.2023 33.3407 25.9771 33.7034 26.785 33.7034C27.5929 33.7034 28.3677 33.3407 28.9389 32.6951C29.5102 32.0495 29.8311 31.1739 29.8311 30.2608C29.8311 29.3478 29.5102 28.4722 28.9389 27.8266L14.2157 11.1873Z" fill="#963A0B"/>
<path fill-rule="evenodd" clip-rule="evenodd" d="M46.6852 33.185C55.2507 30.7057 64.2608 33.9387 70.1333 41.5093L77.1215 49.6488L77.2264 49.7816L78.3674 51.2559L79.6383 49.6678L86.5134 41.5283C92.3859 33.9435 101.404 30.7104 109.97 33.1945C118.556 35.6785 125.196 43.4624 127.302 53.3417C129.399 63.183 126.694 73.5933 120.201 80.4291L80.9135 126.934C80.6308 127.269 80.2912 127.536 79.915 127.719C79.5388 127.902 79.1338 127.998 78.7242 128C78.3145 128.002 77.9087 127.911 77.531 127.732C77.1533 127.553 76.8114 127.289 76.5259 126.957L36.4712 80.4386C29.9695 73.598 27.2556 63.183 29.3529 53.3417C31.4628 43.4577 38.1072 35.6737 46.6852 33.185ZM48.1995 39.8596C54.5166 38.0298 61.2071 40.4048 65.5947 46.1029L65.7037 46.2451L72.6878 54.3799L76.0309 58.7033C76.3137 59.0701 76.662 59.365 77.053 59.5686C77.444 59.7721 77.8687 59.8797 78.2992 59.8842C78.7297 59.8887 79.1561 59.79 79.5503 59.5946C79.9445 59.3992 80.2976 59.1115 80.5863 58.7507L84.0805 54.3894L90.9681 46.2167C90.9996 46.1796 91.0304 46.1417 91.0604 46.1029C95.4479 40.4048 102.138 38.0298 108.456 39.8596C114.777 41.6895 119.781 47.4682 121.375 54.9535C122.973 62.4483 120.88 70.3318 115.985 75.4421C115.939 75.491 115.894 75.5416 115.851 75.5938L78.6861 119.586L40.7833 75.5701C40.7452 75.5262 40.7061 75.4835 40.6659 75.4421C35.7749 70.3318 33.6818 62.453 35.28 54.9535C36.8739 47.4634 41.8739 41.6895 48.1995 39.8596Z" fill="#963A0B"/>
<path d="M4.13563 43.6305C3.38081 43.3043 2.54222 43.3303 1.80434 43.7028C1.06647 44.0753 0.489746 44.7638 0.201055 45.6168C-0.0876355 46.4699 -0.0646498 47.4176 0.264956 48.2515C0.594562 49.0854 1.20379 49.7372 1.95861 50.0634L15.0627 55.7236C15.4364 55.8852 15.8347 55.962 16.2347 55.9496C16.6347 55.9372 17.0286 55.8359 17.394 55.6514C17.7593 55.467 18.089 55.203 18.3641 54.8746C18.6391 54.5462 18.8543 54.1597 18.9973 53.7374C19.1402 53.315 19.2081 52.8649 19.1972 52.4128C19.1862 51.9608 19.0966 51.5156 18.9334 51.1027C18.7702 50.6898 18.5366 50.3172 18.246 50.0063C17.9554 49.6954 17.6134 49.4523 17.2397 49.2907L4.13563 43.6305Z" fill="#963A0B"/>
</svg>
