<svg width="128" height="73" viewBox="0 0 128 73" fill="none" xmlns="http://www.w3.org/2000/svg">
<path d="M118.972 40.5426C118.206 31.3268 111.556 22.8351 97.6527 22.8351H83.0635C82.54 22.8351 82.0379 23.0428 81.6677 23.4125C81.2975 23.7822 81.0896 24.2836 81.0896 24.8064V52.9791H78.6323V17.0407C78.6326 16.7815 78.5816 16.5248 78.4824 16.2853C78.3832 16.0457 78.2377 15.8281 78.0541 15.6448C77.8706 15.4615 77.6527 15.3161 77.4128 15.2171C77.173 15.118 76.9159 15.0671 76.6563 15.0674H49.2528C48.9882 15.0674 48.7263 15.1194 48.4819 15.2205C48.2374 15.3216 48.0154 15.4698 47.8283 15.6567C47.6412 15.8435 47.4928 16.0653 47.3916 16.3094C47.2904 16.5535 47.2383 16.8151 47.2383 17.0793C47.2383 17.3435 47.2904 17.6051 47.3916 17.8492C47.4928 18.0933 47.6412 18.3151 47.8283 18.5019C48.0154 18.6887 48.2374 18.8369 48.4819 18.938C48.7263 19.0391 48.9882 19.0912 49.2528 19.0912H74.6824V52.7377H51.7913C49.6646 50.7223 46.8446 49.5987 43.9128 49.5987C40.981 49.5987 38.161 50.7223 36.0344 52.7377H23.7034V42.9581C23.7034 42.4242 23.491 41.9123 23.113 41.5348C22.735 41.1573 22.2224 40.9452 21.6878 40.9452C21.1533 40.9452 20.6406 41.1573 20.2626 41.5348C19.8846 41.9123 19.6723 42.4242 19.6723 42.9581V61.0692C19.6671 61.3316 19.7144 61.5924 19.8114 61.8362C19.9084 62.0801 20.0532 62.3022 20.2372 62.4896C20.4212 62.6769 20.6407 62.8257 20.883 62.9273C21.1253 63.0289 21.3854 63.0812 21.6482 63.0811H32.6104C33.0867 65.7182 34.4756 68.1044 36.5344 69.8228C38.5932 71.5412 41.1911 72.4827 43.8742 72.4827C46.5574 72.4827 49.1553 71.5412 51.2141 69.8228C53.2729 68.1044 54.6618 65.7182 55.138 63.0811H89.3102C89.8086 65.6947 91.2042 68.0528 93.2566 69.749C95.3091 71.4452 97.8897 72.3733 100.554 72.3733C103.218 72.3733 105.798 71.4452 107.851 69.749C109.903 68.0528 111.299 65.6947 111.797 63.0811H126.023C126.286 63.0814 126.546 63.0293 126.788 62.9279C127.031 62.8264 127.251 62.6776 127.435 62.4902C127.619 62.3028 127.763 62.0806 127.86 61.8366C127.957 61.5926 128.004 61.3317 127.999 61.0692V48.7139C127.999 43.6436 124.975 40.9462 118.972 40.6623V40.5426ZM114.941 40.6643H96.6048V26.577H97.6527C109.381 26.577 114.175 33.6612 114.941 40.4615V40.6643ZM81.0896 59.0573H78.6323V56.6398H81.0896V59.0533V59.0573ZM74.6824 59.0573H55.134C54.9918 58.2171 54.7625 57.394 54.4496 56.6013H74.5991L74.6804 59.0553L74.6824 59.0573ZM23.7034 56.6398H33.2948C32.9821 57.4308 32.7526 58.2542 32.6104 59.0938H23.7034V56.6398ZM43.8529 68.4313C42.3703 68.4313 40.921 67.9922 39.6883 67.1696C38.4556 66.3469 37.4949 65.1777 36.9276 63.8097C36.3604 62.4418 36.212 60.9365 36.5014 59.4844C36.7908 58.0322 37.5049 56.6984 38.5534 55.6515C39.6019 54.6047 40.9377 53.8919 42.3918 53.6033C43.846 53.3147 45.3532 53.4632 46.7228 54.0301C48.0924 54.597 49.2629 55.5568 50.0863 56.7881C50.9097 58.0194 51.349 59.4669 51.3486 60.9475C51.3379 62.9291 50.545 64.8264 49.142 66.2276C47.7389 67.6288 45.8371 68.4207 43.8529 68.4313ZM100.514 68.4313C99.0315 68.4313 97.5822 67.9922 96.3495 67.1696C95.1168 66.3469 94.1561 65.1777 93.5888 63.8097C93.0216 62.4418 92.8732 60.9365 93.1626 59.4844C93.452 58.0322 94.1661 56.6984 95.2146 55.6515C96.2631 54.6047 97.5989 53.8919 99.053 53.6033C100.507 53.3147 102.014 53.4632 103.384 54.0301C104.754 54.597 105.924 55.5568 106.747 56.7881C107.571 58.0194 108.01 59.4669 108.01 60.9475C107.999 62.9294 107.206 64.8271 105.802 66.2283C104.399 67.6295 102.499 68.4212 100.514 68.4313ZM124.049 59.0533H111.96C111.534 56.3756 110.166 53.9375 108.101 52.1772C106.036 50.4168 103.411 49.4497 100.696 49.4497C97.9811 49.4497 95.3554 50.4168 93.2907 52.1772C91.226 53.9375 89.8578 56.3756 89.4321 59.0533H85.0395V26.577H92.6143V42.4349C92.6143 42.6939 92.6654 42.9504 92.7648 43.1897C92.8641 43.429 93.0097 43.6464 93.1932 43.8295C93.3767 44.0126 93.5945 44.1578 93.8343 44.2567C94.074 44.3557 94.3309 44.4065 94.5903 44.4062H117.439C123.564 44.4062 124.047 46.4586 124.047 48.7139V59.0573L124.049 59.0533Z" fill="#963A0B"/>
<path d="M43.8991 57.1232C43.3964 57.1239 42.8988 57.2234 42.4346 57.4162C41.9704 57.6089 41.5488 57.8911 41.1938 58.2466C40.4768 58.9645 40.0748 59.9374 40.0761 60.9513C40.0775 61.9652 40.4821 62.9371 41.2009 63.6531C41.9198 64.3691 42.894 64.7706 43.9093 64.7692C44.9245 64.7679 45.8977 64.3638 46.6146 63.6459C47.3316 62.928 47.7336 61.9551 47.7322 60.9412C47.7309 59.9272 47.3263 58.9554 46.6074 58.2394C45.8886 57.5234 44.9144 57.1219 43.8991 57.1232ZM100.56 57.1232C100.058 57.1239 99.5599 57.2234 99.0958 57.4162C98.6316 57.6089 98.2099 57.8911 97.8549 58.2466C97.4999 58.602 97.2185 59.0238 97.0268 59.4879C96.835 59.952 96.7367 60.4493 96.7373 60.9513C96.738 61.4534 96.8377 61.9504 97.0307 62.4139C97.2237 62.8775 97.5062 63.2986 97.8621 63.6531C98.2181 64.0076 98.6404 64.2887 99.1051 64.4802C99.5698 64.6717 100.068 64.7699 100.57 64.7692C101.586 64.7679 102.559 64.3638 103.276 63.6459C103.993 62.928 104.395 61.9551 104.393 60.9412C104.392 59.9272 103.987 58.9554 103.269 58.2394C102.55 57.5234 101.576 57.1219 100.56 57.1232ZM26.9318 38.3266C27.458 38.3299 27.9645 38.1276 28.3432 37.7628L41.0763 25.0465C42.6525 23.4309 43.5345 21.2644 43.5345 19.0087C43.5345 16.7531 42.6525 14.5866 41.0763 12.971C39.4442 11.4256 37.2808 10.5641 35.0317 10.5641C32.7825 10.5641 30.6191 11.4256 28.987 12.971L26.9318 14.7821L24.9579 12.8493C23.7634 11.6297 22.2331 10.7918 20.5611 10.4419C18.8892 10.092 17.1508 10.2458 15.5665 10.8839C13.9821 11.5219 12.6232 12.6155 11.6621 14.0259C10.7009 15.4363 10.1808 17.0999 10.1676 18.8059C10.1642 19.9368 10.3869 21.0571 10.8228 22.1008C11.2587 23.1446 11.899 24.0909 12.7061 24.8842L25.4006 37.6005C25.7844 37.9595 26.2881 38.1603 26.812 38.1644L26.9339 38.3266H26.9318ZM14.1175 18.8059C14.079 17.8565 14.3341 16.9183 14.848 16.1187C15.362 15.319 16.1099 14.6968 16.9902 14.3364C17.8706 13.976 18.8407 13.8949 19.7687 14.1042C20.6968 14.3135 21.5379 14.803 22.1777 15.5062L25.4818 18.8871C25.6667 19.0872 25.8911 19.2469 26.1408 19.3562C26.3905 19.4655 26.6602 19.5219 26.9328 19.5219C27.2055 19.5219 27.4752 19.4655 27.7249 19.3562C27.9746 19.2469 28.199 19.0872 28.3839 18.8871L31.688 15.5062C32.5772 14.6709 33.752 14.2059 34.9728 14.2059C36.1935 14.2059 37.3683 14.6709 38.2576 15.5062C39.1369 16.3783 39.6304 17.5688 39.6263 18.8059C39.6321 19.4141 39.5135 20.017 39.2778 20.5778C39.0421 21.1385 38.6942 21.6454 38.2555 22.0672L26.9318 33.5362L15.6081 22.2274C15.1697 21.8058 14.822 21.2993 14.5863 20.7389C14.3506 20.1785 14.2318 19.576 14.2373 18.9682M10.4519 7.90072L5.89687 3.35165C5.52027 2.98289 5.0139 2.77633 4.48648 2.77633C3.95907 2.77633 3.45269 2.98289 3.0761 3.35165C2.70877 3.72096 2.50262 4.22037 2.50262 4.74091C2.50262 5.26145 2.70877 5.76086 3.0761 6.13017L7.62914 10.7583C8.00158 11.1373 8.50891 11.3538 9.04054 11.3607C9.42711 11.3484 9.80198 11.2253 10.1204 11.006C10.4388 10.7867 10.6872 10.4805 10.836 10.124C10.9849 9.7675 11.0278 9.37574 10.9597 8.99551C10.8916 8.61529 10.7153 8.26269 10.4519 7.97982M13.8759 6.73252C14.1845 7.48293 14.9156 7.97576 15.73 7.97982C15.9696 8.02038 16.2153 8.02038 16.455 7.97982C17.4541 7.55391 17.9476 6.42628 17.5841 5.4041L16.1727 1.82244C16.087 1.56915 15.9505 1.33593 15.7717 1.13696C15.5929 0.937986 15.3754 0.777423 15.1324 0.665036C14.8895 0.552649 14.6262 0.490787 14.3586 0.483213C14.091 0.475639 13.8247 0.522511 13.5758 0.620978C13.3268 0.719444 13.1006 0.867448 12.9108 1.05599C12.7209 1.24453 12.5715 1.46966 12.4715 1.71769C12.3716 1.96572 12.3232 2.23147 12.3293 2.49877C12.3354 2.76607 12.3959 3.02933 12.5071 3.27255L13.8759 6.73252ZM6.3802 14.1372L2.7532 12.7297C2.50775 12.6266 2.24404 12.5739 1.97778 12.5748C1.71151 12.5756 1.44814 12.63 1.20336 12.7346C0.958574 12.8392 0.737382 12.992 0.552961 13.1838C0.36854 13.3756 0.224663 13.6025 0.129902 13.851C0.0351405 14.0995 -0.00856577 14.3646 0.0013865 14.6303C0.0113388 14.896 0.074746 15.157 0.187831 15.3978C0.300915 15.6385 0.461363 15.8541 0.659616 16.0316C0.857869 16.2091 1.08987 16.3449 1.3418 16.431L4.93021 17.8C5.15563 17.8405 5.38714 17.8405 5.61459 17.8C6.01615 17.8153 6.41218 17.7027 6.74547 17.4785C7.07875 17.2543 7.33203 16.9301 7.4687 16.5527C7.56531 16.3126 7.61266 16.0555 7.60794 15.7968C7.60322 15.5381 7.54652 15.283 7.44122 15.0465C7.33592 14.8101 7.18415 14.5972 6.99491 14.4204C6.80568 14.2437 6.58283 14.1067 6.33958 14.0175" fill="#963A0B"/>
</svg>
