<svg width="135" height="135" viewBox="0 0 135 135" fill="none" xmlns="http://www.w3.org/2000/svg">
<path d="M83.7246 69.205L103.241 51.0925C128.948 53.1625 133.004 34.36 131.818 24.7L129.74 22.63L120.387 31.4275H111.034L104.799 26.2525V19.0075L114.672 7.6225L112.593 5.5525C87.6532 3.0685 83.7246 22.63 85.5748 37.12L64.7914 58.3375M83.7246 69.205L80.379 72.31L67.9089 84.2125M83.7246 69.205L90.9874 76.2341M67.9089 84.2125L59.076 92.7513L50.243 101.29C51.8018 113.02 48.6843 135.342 23.7442 130.788L21.6659 129.753L31.538 119.403V112.158L23.7442 104.913H15.9505L6.07834 113.193L4.51958 112.158C4.17319 101.635 9.92327 81.9355 35.6947 87.3175L57.5172 65.5825M67.9089 84.2125L75.4429 91.7163M57.5172 65.5825L55.4389 63.5125L23.2246 31.4275L14.3917 29.875L4 12.7975L12.8329 4L29.4597 15.9025L31.0184 24.7L62.7131 56.2675L64.7914 58.3375M57.5172 65.5825L64.7914 58.3375M50.243 85.765L83.7246 53.5484M94.9273 72.31L90.9874 76.2341M72.0656 95.08L75.4429 91.7163M93.8882 93.5275L118.309 117.85M90.9874 76.2341L130.779 114.745C132.684 122.335 132.13 136.17 114.672 130.788L75.4429 91.7163M90.9874 76.2341L75.4429 91.7163" stroke="#963A0B" stroke-width="5" stroke-linecap="round"/>
</svg>
