<svg width="128" height="72" viewBox="0 0 128 72" fill="none" xmlns="http://www.w3.org/2000/svg">
<path d="M118.972 40.0602C118.206 30.8444 111.556 22.3527 97.6527 22.3527H83.0635C82.54 22.3527 82.0379 22.5604 81.6677 22.9301C81.2975 23.2998 81.0896 23.8012 81.0896 24.324V52.4966H78.6323V16.5583C78.6326 16.2991 78.5816 16.0424 78.4824 15.8028C78.3832 15.5633 78.2377 15.3456 78.0541 15.1624C77.8706 14.9791 77.6527 14.8337 77.4128 14.7346C77.173 14.6356 76.9159 14.5847 76.6563 14.585H49.2528C48.9882 14.585 48.7263 14.637 48.4819 14.7381C48.2374 14.8392 48.0154 14.9874 47.8283 15.1742C47.6412 15.3611 47.4928 15.5828 47.3916 15.8269C47.2904 16.071 47.2383 16.3327 47.2383 16.5969C47.2383 16.8611 47.2904 17.1227 47.3916 17.3668C47.4928 17.6109 47.6412 17.8327 47.8283 18.0195C48.0154 18.2063 48.2374 18.3545 48.4819 18.4556C48.7263 18.5567 48.9882 18.6088 49.2528 18.6088H74.6824V52.2553H51.7913C49.6646 50.2399 46.8446 49.1163 43.9128 49.1163C40.981 49.1163 38.161 50.2399 36.0344 52.2553H23.7034V42.4757C23.7034 41.9418 23.491 41.4298 23.113 41.0523C22.735 40.6748 22.2224 40.4628 21.6878 40.4628C21.1533 40.4628 20.6406 40.6748 20.2626 41.0523C19.8846 41.4298 19.6723 41.9418 19.6723 42.4757V60.5868C19.6671 60.8492 19.7144 61.1099 19.8114 61.3538C19.9084 61.5977 20.0532 61.8198 20.2372 62.0072C20.4212 62.1945 20.6407 62.3433 20.883 62.4449C21.1253 62.5465 21.3854 62.5988 21.6482 62.5987H32.6104C33.0867 65.2358 34.4756 67.622 36.5344 69.3404C38.5932 71.0588 41.1911 72.0002 43.8742 72.0002C46.5574 72.0002 49.1553 71.0588 51.2141 69.3404C53.2729 67.622 54.6618 65.2358 55.138 62.5987H89.3102C89.8086 65.2123 91.2042 67.5704 93.2566 69.2666C95.3091 70.9628 97.8897 71.8908 100.554 71.8908C103.218 71.8908 105.798 70.9628 107.851 69.2666C109.903 67.5704 111.299 65.2123 111.797 62.5987H126.023C126.286 62.599 126.546 62.5469 126.788 62.4454C127.031 62.344 127.251 62.1952 127.435 62.0078C127.619 61.8204 127.763 61.5981 127.86 61.3541C127.957 61.1101 128.004 60.8493 127.999 60.5868V48.2315C127.999 43.1612 124.975 40.4638 118.972 40.1799V40.0602ZM114.941 40.1819H96.6048V26.0945H97.6527C109.381 26.0945 114.175 33.1788 114.941 39.9791V40.1819ZM81.0896 58.5749H78.6323V56.1574H81.0896V58.5709V58.5749ZM74.6824 58.5749H55.134C54.9918 57.7347 54.7625 56.9116 54.4496 56.1189H74.5991L74.6804 58.5729L74.6824 58.5749ZM23.7034 56.1574H33.2948C32.9821 56.9484 32.7526 57.7718 32.6104 58.6114H23.7034V56.1574ZM43.8529 67.9489C42.3703 67.9489 40.921 67.5098 39.6883 66.6872C38.4556 65.8645 37.4949 64.6953 36.9276 63.3273C36.3604 61.9593 36.212 60.4541 36.5014 59.0019C36.7908 57.5498 37.5049 56.2159 38.5534 55.1691C39.6019 54.1223 40.9377 53.4095 42.3918 53.1209C43.846 52.8323 45.3532 52.9808 46.7228 53.5477C48.0924 54.1146 49.2629 55.0744 50.0863 56.3057C50.9097 57.537 51.349 58.9845 51.3486 60.4651C51.3379 62.4467 50.545 64.344 49.142 65.7452C47.7389 67.1463 45.8371 67.9382 43.8529 67.9489ZM100.514 67.9489C99.0315 67.9489 97.5822 67.5098 96.3495 66.6872C95.1168 65.8645 94.1561 64.6953 93.5888 63.3273C93.0216 61.9593 92.8732 60.4541 93.1626 59.0019C93.452 57.5498 94.1661 56.2159 95.2146 55.1691C96.2631 54.1223 97.5989 53.4095 99.053 53.1209C100.507 52.8323 102.014 52.9808 103.384 53.5477C104.754 54.1146 105.924 55.0744 106.747 56.3057C107.571 57.537 108.01 58.9845 108.01 60.4651C107.999 62.447 107.206 64.3447 105.802 65.7459C104.399 67.1471 102.499 67.9388 100.514 67.9489ZM124.049 58.5709H111.96C111.534 55.8932 110.166 53.4551 108.101 51.6947C106.036 49.9344 103.411 48.9673 100.696 48.9673C97.9811 48.9673 95.3554 49.9344 93.2907 51.6947C91.226 53.4551 89.8578 55.8932 89.4321 58.5709H85.0395V26.0945H92.6143V41.9524C92.6143 42.2115 92.6654 42.468 92.7648 42.7073C92.8641 42.9466 93.0097 43.164 93.1932 43.3471C93.3767 43.5302 93.5945 43.6753 93.8343 43.7743C94.074 43.8732 94.3309 43.924 94.5903 43.9238H117.439C123.564 43.9238 124.047 45.9762 124.047 48.2315V58.5749L124.049 58.5709Z" fill="white"/>
<path d="M43.8991 56.6408C43.3964 56.6415 42.8988 56.741 42.4346 56.9338C41.9704 57.1265 41.5488 57.4087 41.1938 57.7641C40.4768 58.482 40.0748 59.455 40.0761 60.4689C40.0775 61.4828 40.4821 62.4547 41.2009 63.1707C41.9198 63.8867 42.894 64.2882 43.9093 64.2868C44.9245 64.2855 45.8977 63.8814 46.6146 63.1635C47.3316 62.4456 47.7336 61.4727 47.7322 60.4587C47.7309 59.4448 47.3263 58.473 46.6074 57.757C45.8886 57.041 44.9144 56.6395 43.8991 56.6408ZM100.56 56.6408C100.058 56.6415 99.5599 56.741 99.0958 56.9338C98.6316 57.1265 98.2099 57.4087 97.8549 57.7641C97.4999 58.1196 97.2185 58.5414 97.0268 59.0055C96.835 59.4696 96.7367 59.9668 96.7373 60.4689C96.738 60.9709 96.8377 61.4679 97.0307 61.9315C97.2237 62.3951 97.5062 62.8162 97.8621 63.1707C98.2181 63.5252 98.6404 63.8063 99.1051 63.9978C99.5698 64.1893 100.068 64.2875 100.57 64.2868C101.586 64.2855 102.559 63.8814 103.276 63.1635C103.993 62.4456 104.395 61.4727 104.393 60.4587C104.392 59.4448 103.987 58.473 103.269 57.757C102.55 57.041 101.576 56.6395 100.56 56.6408ZM26.9318 37.8442C27.458 37.8475 27.9645 37.6452 28.3432 37.2804L41.0763 24.564C42.6525 22.9484 43.5345 20.782 43.5345 18.5263C43.5345 16.2707 42.6525 14.1042 41.0763 12.4886C39.4442 10.9431 37.2808 10.0817 35.0317 10.0817C32.7825 10.0817 30.6191 10.9431 28.987 12.4886L26.9318 14.2997L24.9579 12.3669C23.7634 11.1473 22.2331 10.3094 20.5611 9.95946C18.8892 9.60954 17.1508 9.76337 15.5665 10.4014C13.9821 11.0395 12.6232 12.1331 11.6621 13.5434C10.7009 14.9538 10.1808 16.6175 10.1676 18.3235C10.1642 19.4544 10.3869 20.5746 10.8228 21.6184C11.2587 22.6622 11.899 23.6085 12.7061 24.4018L25.4006 37.1181C25.7844 37.4771 26.2881 37.6779 26.812 37.6819L26.9339 37.8442H26.9318ZM14.1175 18.3235C14.079 17.3741 14.3341 16.4359 14.848 15.6362C15.362 14.8366 16.1099 14.2143 16.9902 13.8539C17.8706 13.4935 18.8407 13.4125 19.7687 13.6218C20.6968 13.8311 21.5379 14.3205 22.1777 15.0238L25.4818 18.4046C25.6667 18.6048 25.8911 18.7645 26.1408 18.8738C26.3905 18.983 26.6602 19.0394 26.9328 19.0394C27.2055 19.0394 27.4752 18.983 27.7249 18.8738C27.9746 18.7645 28.199 18.6048 28.3839 18.4046L31.688 15.0238C32.5772 14.1885 33.752 13.7235 34.9728 13.7235C36.1935 13.7235 37.3683 14.1885 38.2576 15.0238C39.1369 15.8958 39.6304 17.0864 39.6263 18.3235C39.6321 18.9317 39.5135 19.5346 39.2778 20.0953C39.0421 20.6561 38.6942 21.1629 38.2555 21.5847L26.9318 33.0538L15.6081 21.7449C15.1697 21.3234 14.822 20.8169 14.5863 20.2565C14.3506 19.6961 14.2318 19.0936 14.2373 18.4858M10.4519 7.4183L5.89687 2.86922C5.52027 2.50047 5.0139 2.29391 4.48648 2.29391C3.95907 2.29391 3.45269 2.50047 3.0761 2.86922C2.70877 3.23853 2.50262 3.73795 2.50262 4.25849C2.50262 4.77903 2.70877 5.27844 3.0761 5.64775L7.62914 10.2759C8.00158 10.6548 8.50891 10.8714 9.04054 10.8783C9.42711 10.866 9.80198 10.7429 10.1204 10.5236C10.4388 10.3043 10.6872 9.99811 10.836 9.64159C10.9849 9.28508 11.0278 8.89331 10.9597 8.51309C10.8916 8.13287 10.7153 7.78027 10.4519 7.4974M13.8759 6.2501C14.1845 7.00051 14.9156 7.49334 15.73 7.4974C15.9696 7.53796 16.2153 7.53796 16.455 7.4974C17.4541 7.07149 17.9476 5.94386 17.5841 4.92168L16.1727 1.34002C16.087 1.08673 15.9505 0.853509 15.7717 0.654537C15.5929 0.455564 15.3754 0.295001 15.1324 0.182614C14.8895 0.0702274 14.6262 0.00836546 14.3586 0.000791227C14.091 -0.00678301 13.8247 0.0400888 13.5758 0.138556C13.3268 0.237023 13.1006 0.385026 12.9108 0.573565C12.7209 0.762103 12.5715 0.987236 12.4715 1.23527C12.3716 1.4833 12.3232 1.74905 12.3293 2.01635C12.3354 2.28365 12.3959 2.54691 12.5071 2.79013L13.8759 6.2501ZM6.3802 13.6548L2.7532 12.2473C2.50775 12.1442 2.24404 12.0915 1.97778 12.0923C1.71151 12.0932 1.44814 12.1475 1.20336 12.2522C0.958574 12.3568 0.737382 12.5096 0.552961 12.7014C0.36854 12.8932 0.224663 13.1201 0.129902 13.3686C0.0351405 13.6171 -0.00856577 13.8821 0.0013865 14.1479C0.0113388 14.4136 0.074746 14.6746 0.187831 14.9153C0.300915 15.1561 0.461363 15.3716 0.659616 15.5491C0.857869 15.7267 1.08987 15.8625 1.3418 15.9486L4.93021 17.3176C5.15563 17.3581 5.38714 17.3581 5.61459 17.3176C6.01615 17.3329 6.41218 17.2203 6.74547 16.9961C7.07875 16.7719 7.33203 16.4477 7.4687 16.0703C7.56531 15.8302 7.61266 15.5731 7.60794 15.3144C7.60322 15.0557 7.54652 14.8005 7.44122 14.5641C7.33592 14.3277 7.18415 14.1148 6.99491 13.938C6.80568 13.7613 6.58283 13.6243 6.33958 13.5351" fill="white"/>
</svg>
