<svg width="128" height="128" viewBox="0 0 128 128" fill="none" xmlns="http://www.w3.org/2000/svg">
<path d="M64 0C99.3513 0 128 28.6487 128 64C128 99.3455 99.3513 128 64 128C28.6545 128 0 99.3455 0 64C0 28.6429 28.6545 0 64 0ZM78.0975 81.7571L78.0218 81.8036C73.7469 84.2285 68.9148 85.4997 64 85.4924C59.0584 85.5015 54.2004 84.2178 49.9084 81.7687L51.1884 81.2626C39.4124 85.5447 30.1265 95.5869 26.2109 108.23C36.7312 117.254 50.1397 122.204 64 122.182C78.4291 122.182 91.6247 116.934 101.795 108.241C98.0247 96.0582 89.2684 86.2895 78.0975 81.7571ZM64 5.81818C31.8662 5.81818 5.81818 31.8662 5.81818 64C5.7988 78.7952 11.4353 93.0384 21.5738 103.814C25.8385 92.3695 34.0829 83.0429 44.5556 77.7949C40.3884 73.892 37.4913 68.8261 36.2407 63.2552C34.9901 57.6844 35.4438 51.8662 37.5428 46.5566C39.6419 41.247 43.2893 36.6914 48.0112 33.4817C52.733 30.272 58.3111 28.5565 64.0205 28.5582C69.73 28.5599 75.307 30.2787 80.027 33.4912C84.7469 36.7038 88.3916 41.2616 90.4875 46.5724C92.5834 51.8833 93.0336 57.7018 91.7796 63.2719C90.5257 68.8419 87.6255 73.9062 83.456 77.8065C93.9171 83.0429 102.161 92.3753 106.426 103.814C116.571 93.0377 122.208 78.7884 122.182 63.9884C122.182 31.8604 96.1396 5.81818 64 5.81818ZM64 34.3796C61.0263 34.3796 58.0817 34.9654 55.3344 36.1033C52.587 37.2413 50.0907 38.9093 47.988 41.012C45.8853 43.1147 44.2173 45.611 43.0793 48.3584C41.9413 51.1057 41.3556 54.0503 41.3556 57.024C41.3556 59.9977 41.9413 62.9423 43.0793 65.6896C44.2173 68.437 45.8853 70.9333 47.988 73.036C50.0907 75.1387 52.587 76.8067 55.3344 77.9447C58.0817 79.0826 61.0263 79.6684 64 79.6684C70.0057 79.6684 75.7653 77.2826 80.012 73.036C84.2586 68.7893 86.6444 63.0297 86.6444 57.024C86.6444 51.0183 84.2586 45.2587 80.012 41.012C75.7653 36.7654 70.0057 34.3796 64 34.3796Z" fill="#963A0B"/>
</svg>
